<?xml version="1.0" encoding="utf-8" standalone="no"?>
<!DOCTYPE svg PUBLIC "-//W3C//DTD SVG 1.1//EN"
  "http://www.w3.org/Graphics/SVG/1.1/DTD/svg11.dtd">
<svg xmlns:xlink="http://www.w3.org/1999/xlink" width="453.225937pt" height="337.354375pt" viewBox="0 0 453.225937 337.354375" xmlns="http://www.w3.org/2000/svg" version="1.1">
 <metadata>
  <rdf:RDF xmlns:dc="http://purl.org/dc/elements/1.1/" xmlns:cc="http://creativecommons.org/ns#" xmlns:rdf="http://www.w3.org/1999/02/22-rdf-syntax-ns#">
   <cc:Work>
    <dc:type rdf:resource="http://purl.org/dc/dcmitype/StillImage"/>
    <dc:date>2022-10-21T12:29:31.704823</dc:date>
    <dc:format>image/svg+xml</dc:format>
    <dc:creator>
     <cc:Agent>
      <dc:title>Matplotlib v3.5.1, https://matplotlib.org/</dc:title>
     </cc:Agent>
    </dc:creator>
   </cc:Work>
  </rdf:RDF>
 </metadata>
 <defs>
  <style type="text/css">*{stroke-linejoin: round; stroke-linecap: butt}</style>
 </defs>
 <g id="figure_1">
  <g id="patch_1">
   <path d="M 0 337.354375 
L 453.225937 337.354375 
L 453.225937 0 
L 0 0 
z
" style="fill: #ffffff"/>
  </g>
  <g id="axes_1">
   <g id="patch_2">
    <path d="M 52.160938 299.798125 
L 446.025937 299.798125 
L 446.025937 22.318125 
L 52.160938 22.318125 
z
" style="fill: #ffffff"/>
   </g>
   <g id="PathCollection_1">
    <defs>
     <path id="m89f560ca08" d="M 0 3 
C 0.795609 3 1.55874 2.683901 2.12132 2.12132 
C 2.683901 1.55874 3 0.795609 3 0 
C 3 -0.795609 2.683901 -1.55874 2.12132 -2.12132 
C 1.55874 -2.683901 0.795609 -3 0 -3 
C -0.795609 -3 -1.55874 -2.683901 -2.12132 -2.12132 
C -2.683901 -1.55874 -3 -0.795609 -3 0 
C -3 0.795609 -2.683901 1.55874 -2.12132 2.12132 
C -1.55874 2.683901 -0.795609 3 0 3 
z
" style="stroke: #1f77b4"/>
    </defs>
    <g clip-path="url(#p152945b259)">
     <use xlink:href="#m89f560ca08" x="70.063892" y="168.107026" style="fill: #1f77b4; stroke: #1f77b4"/>
     <use xlink:href="#m89f560ca08" x="73.680651" y="131.637077" style="fill: #1f77b4; stroke: #1f77b4"/>
     <use xlink:href="#m89f560ca08" x="77.297409" y="156.454272" style="fill: #1f77b4; stroke: #1f77b4"/>
     <use xlink:href="#m89f560ca08" x="80.914168" y="110.017488" style="fill: #1f77b4; stroke: #1f77b4"/>
     <use xlink:href="#m89f560ca08" x="84.530926" y="132.126823" style="fill: #1f77b4; stroke: #1f77b4"/>
     <use xlink:href="#m89f560ca08" x="88.147685" y="154.990852" style="fill: #1f77b4; stroke: #1f77b4"/>
     <use xlink:href="#m89f560ca08" x="91.764443" y="133.421918" style="fill: #1f77b4; stroke: #1f77b4"/>
     <use xlink:href="#m89f560ca08" x="95.381202" y="155.062184" style="fill: #1f77b4; stroke: #1f77b4"/>
     <use xlink:href="#m89f560ca08" x="98.99796" y="92.911285" style="fill: #1f77b4; stroke: #1f77b4"/>
     <use xlink:href="#m89f560ca08" x="102.614718" y="80.494098" style="fill: #1f77b4; stroke: #1f77b4"/>
     <use xlink:href="#m89f560ca08" x="106.231477" y="89.972418" style="fill: #1f77b4; stroke: #1f77b4"/>
     <use xlink:href="#m89f560ca08" x="109.848235" y="122.389142" style="fill: #1f77b4; stroke: #1f77b4"/>
     <use xlink:href="#m89f560ca08" x="113.464994" y="114.038632" style="fill: #1f77b4; stroke: #1f77b4"/>
     <use xlink:href="#m89f560ca08" x="117.081752" y="71.397028" style="fill: #1f77b4; stroke: #1f77b4"/>
     <use xlink:href="#m89f560ca08" x="120.698511" y="107.297213" style="fill: #1f77b4; stroke: #1f77b4"/>
     <use xlink:href="#m89f560ca08" x="124.315269" y="91.572915" style="fill: #1f77b4; stroke: #1f77b4"/>
     <use xlink:href="#m89f560ca08" x="127.932028" y="42.978337" style="fill: #1f77b4; stroke: #1f77b4"/>
     <use xlink:href="#m89f560ca08" x="131.548786" y="98.144333" style="fill: #1f77b4; stroke: #1f77b4"/>
     <use xlink:href="#m89f560ca08" x="135.165545" y="60.040302" style="fill: #1f77b4; stroke: #1f77b4"/>
     <use xlink:href="#m89f560ca08" x="138.782303" y="65.837485" style="fill: #1f77b4; stroke: #1f77b4"/>
     <use xlink:href="#m89f560ca08" x="142.399062" y="57.41407" style="fill: #1f77b4; stroke: #1f77b4"/>
     <use xlink:href="#m89f560ca08" x="146.01582" y="34.930852" style="fill: #1f77b4; stroke: #1f77b4"/>
     <use xlink:href="#m89f560ca08" x="149.632579" y="92.080051" style="fill: #1f77b4; stroke: #1f77b4"/>
     <use xlink:href="#m89f560ca08" x="153.249337" y="66.80759" style="fill: #1f77b4; stroke: #1f77b4"/>
     <use xlink:href="#m89f560ca08" x="156.866096" y="101.313999" style="fill: #1f77b4; stroke: #1f77b4"/>
     <use xlink:href="#m89f560ca08" x="160.482854" y="98.553928" style="fill: #1f77b4; stroke: #1f77b4"/>
     <use xlink:href="#m89f560ca08" x="164.099613" y="104.118506" style="fill: #1f77b4; stroke: #1f77b4"/>
     <use xlink:href="#m89f560ca08" x="167.716371" y="54.803798" style="fill: #1f77b4; stroke: #1f77b4"/>
     <use xlink:href="#m89f560ca08" x="171.33313" y="45.589604" style="fill: #1f77b4; stroke: #1f77b4"/>
     <use xlink:href="#m89f560ca08" x="174.949888" y="98.301853" style="fill: #1f77b4; stroke: #1f77b4"/>
     <use xlink:href="#m89f560ca08" x="178.566647" y="77.817243" style="fill: #1f77b4; stroke: #1f77b4"/>
     <use xlink:href="#m89f560ca08" x="182.183405" y="78.338108" style="fill: #1f77b4; stroke: #1f77b4"/>
     <use xlink:href="#m89f560ca08" x="185.800164" y="90.693235" style="fill: #1f77b4; stroke: #1f77b4"/>
     <use xlink:href="#m89f560ca08" x="189.416922" y="131.425098" style="fill: #1f77b4; stroke: #1f77b4"/>
     <use xlink:href="#m89f560ca08" x="193.033681" y="89.251104" style="fill: #1f77b4; stroke: #1f77b4"/>
     <use xlink:href="#m89f560ca08" x="196.650439" y="100.21127" style="fill: #1f77b4; stroke: #1f77b4"/>
     <use xlink:href="#m89f560ca08" x="200.267198" y="95.475077" style="fill: #1f77b4; stroke: #1f77b4"/>
     <use xlink:href="#m89f560ca08" x="203.883956" y="50.44781" style="fill: #1f77b4; stroke: #1f77b4"/>
     <use xlink:href="#m89f560ca08" x="207.500715" y="127.055308" style="fill: #1f77b4; stroke: #1f77b4"/>
     <use xlink:href="#m89f560ca08" x="211.117473" y="92.588909" style="fill: #1f77b4; stroke: #1f77b4"/>
     <use xlink:href="#m89f560ca08" x="214.734232" y="102.229282" style="fill: #1f77b4; stroke: #1f77b4"/>
     <use xlink:href="#m89f560ca08" x="218.35099" y="90.879645" style="fill: #1f77b4; stroke: #1f77b4"/>
     <use xlink:href="#m89f560ca08" x="221.967749" y="88.33332" style="fill: #1f77b4; stroke: #1f77b4"/>
     <use xlink:href="#m89f560ca08" x="225.584507" y="146.940413" style="fill: #1f77b4; stroke: #1f77b4"/>
     <use xlink:href="#m89f560ca08" x="229.201266" y="140.701184" style="fill: #1f77b4; stroke: #1f77b4"/>
     <use xlink:href="#m89f560ca08" x="232.818024" y="155.330293" style="fill: #1f77b4; stroke: #1f77b4"/>
     <use xlink:href="#m89f560ca08" x="236.434783" y="113.235899" style="fill: #1f77b4; stroke: #1f77b4"/>
     <use xlink:href="#m89f560ca08" x="240.051541" y="171.72574" style="fill: #1f77b4; stroke: #1f77b4"/>
     <use xlink:href="#m89f560ca08" x="243.6683" y="149.846741" style="fill: #1f77b4; stroke: #1f77b4"/>
     <use xlink:href="#m89f560ca08" x="247.285058" y="173.052844" style="fill: #1f77b4; stroke: #1f77b4"/>
     <use xlink:href="#m89f560ca08" x="250.901817" y="134.100228" style="fill: #1f77b4; stroke: #1f77b4"/>
     <use xlink:href="#m89f560ca08" x="254.518575" y="198.152734" style="fill: #1f77b4; stroke: #1f77b4"/>
     <use xlink:href="#m89f560ca08" x="258.135334" y="191.810134" style="fill: #1f77b4; stroke: #1f77b4"/>
     <use xlink:href="#m89f560ca08" x="261.752092" y="145.446232" style="fill: #1f77b4; stroke: #1f77b4"/>
     <use xlink:href="#m89f560ca08" x="265.368851" y="222.842145" style="fill: #1f77b4; stroke: #1f77b4"/>
     <use xlink:href="#m89f560ca08" x="268.985609" y="204.990585" style="fill: #1f77b4; stroke: #1f77b4"/>
     <use xlink:href="#m89f560ca08" x="272.602368" y="205.26625" style="fill: #1f77b4; stroke: #1f77b4"/>
     <use xlink:href="#m89f560ca08" x="276.219126" y="194.187287" style="fill: #1f77b4; stroke: #1f77b4"/>
     <use xlink:href="#m89f560ca08" x="279.835885" y="252.358885" style="fill: #1f77b4; stroke: #1f77b4"/>
     <use xlink:href="#m89f560ca08" x="283.452643" y="237.117676" style="fill: #1f77b4; stroke: #1f77b4"/>
     <use xlink:href="#m89f560ca08" x="287.069402" y="239.794591" style="fill: #1f77b4; stroke: #1f77b4"/>
     <use xlink:href="#m89f560ca08" x="290.68616" y="230.33327" style="fill: #1f77b4; stroke: #1f77b4"/>
     <use xlink:href="#m89f560ca08" x="294.302919" y="249.548677" style="fill: #1f77b4; stroke: #1f77b4"/>
     <use xlink:href="#m89f560ca08" x="297.919677" y="254.597421" style="fill: #1f77b4; stroke: #1f77b4"/>
     <use xlink:href="#m89f560ca08" x="301.536436" y="196.781161" style="fill: #1f77b4; stroke: #1f77b4"/>
     <use xlink:href="#m89f560ca08" x="305.153194" y="184.230114" style="fill: #1f77b4; stroke: #1f77b4"/>
     <use xlink:href="#m89f560ca08" x="308.769953" y="259.25222" style="fill: #1f77b4; stroke: #1f77b4"/>
     <use xlink:href="#m89f560ca08" x="312.386711" y="228.352476" style="fill: #1f77b4; stroke: #1f77b4"/>
     <use xlink:href="#m89f560ca08" x="316.00347" y="234.383224" style="fill: #1f77b4; stroke: #1f77b4"/>
     <use xlink:href="#m89f560ca08" x="319.620228" y="225.152791" style="fill: #1f77b4; stroke: #1f77b4"/>
     <use xlink:href="#m89f560ca08" x="323.236987" y="231.167224" style="fill: #1f77b4; stroke: #1f77b4"/>
     <use xlink:href="#m89f560ca08" x="326.853745" y="241.092665" style="fill: #1f77b4; stroke: #1f77b4"/>
     <use xlink:href="#m89f560ca08" x="330.470504" y="192.499041" style="fill: #1f77b4; stroke: #1f77b4"/>
     <use xlink:href="#m89f560ca08" x="334.087262" y="273.10909" style="fill: #1f77b4; stroke: #1f77b4"/>
     <use xlink:href="#m89f560ca08" x="337.704021" y="227.016972" style="fill: #1f77b4; stroke: #1f77b4"/>
     <use xlink:href="#m89f560ca08" x="341.320779" y="245.905441" style="fill: #1f77b4; stroke: #1f77b4"/>
     <use xlink:href="#m89f560ca08" x="344.937538" y="287.185398" style="fill: #1f77b4; stroke: #1f77b4"/>
     <use xlink:href="#m89f560ca08" x="348.554296" y="267.259646" style="fill: #1f77b4; stroke: #1f77b4"/>
     <use xlink:href="#m89f560ca08" x="352.171055" y="216.574678" style="fill: #1f77b4; stroke: #1f77b4"/>
     <use xlink:href="#m89f560ca08" x="355.787813" y="275.674052" style="fill: #1f77b4; stroke: #1f77b4"/>
     <use xlink:href="#m89f560ca08" x="359.404572" y="194.428181" style="fill: #1f77b4; stroke: #1f77b4"/>
     <use xlink:href="#m89f560ca08" x="363.02133" y="264.453391" style="fill: #1f77b4; stroke: #1f77b4"/>
     <use xlink:href="#m89f560ca08" x="366.638089" y="234.548549" style="fill: #1f77b4; stroke: #1f77b4"/>
     <use xlink:href="#m89f560ca08" x="370.254847" y="192.54277" style="fill: #1f77b4; stroke: #1f77b4"/>
     <use xlink:href="#m89f560ca08" x="373.871606" y="196.367064" style="fill: #1f77b4; stroke: #1f77b4"/>
     <use xlink:href="#m89f560ca08" x="377.488364" y="227.716799" style="fill: #1f77b4; stroke: #1f77b4"/>
     <use xlink:href="#m89f560ca08" x="381.105123" y="204.520849" style="fill: #1f77b4; stroke: #1f77b4"/>
     <use xlink:href="#m89f560ca08" x="384.721881" y="172.099946" style="fill: #1f77b4; stroke: #1f77b4"/>
     <use xlink:href="#m89f560ca08" x="388.33864" y="225.146465" style="fill: #1f77b4; stroke: #1f77b4"/>
     <use xlink:href="#m89f560ca08" x="391.955398" y="165.890351" style="fill: #1f77b4; stroke: #1f77b4"/>
     <use xlink:href="#m89f560ca08" x="395.572157" y="248.737831" style="fill: #1f77b4; stroke: #1f77b4"/>
     <use xlink:href="#m89f560ca08" x="399.188915" y="172.877106" style="fill: #1f77b4; stroke: #1f77b4"/>
     <use xlink:href="#m89f560ca08" x="402.805673" y="172.67955" style="fill: #1f77b4; stroke: #1f77b4"/>
     <use xlink:href="#m89f560ca08" x="406.422432" y="219.742219" style="fill: #1f77b4; stroke: #1f77b4"/>
     <use xlink:href="#m89f560ca08" x="410.03919" y="164.096592" style="fill: #1f77b4; stroke: #1f77b4"/>
     <use xlink:href="#m89f560ca08" x="413.655949" y="180.450179" style="fill: #1f77b4; stroke: #1f77b4"/>
     <use xlink:href="#m89f560ca08" x="417.272707" y="161.212306" style="fill: #1f77b4; stroke: #1f77b4"/>
     <use xlink:href="#m89f560ca08" x="420.889466" y="154.695777" style="fill: #1f77b4; stroke: #1f77b4"/>
     <use xlink:href="#m89f560ca08" x="424.506224" y="140.677787" style="fill: #1f77b4; stroke: #1f77b4"/>
     <use xlink:href="#m89f560ca08" x="428.122983" y="210.613906" style="fill: #1f77b4; stroke: #1f77b4"/>
    </g>
   </g>
   <g id="matplotlib.axis_1">
    <g id="xtick_1">
     <g id="line2d_1">
      <defs>
       <path id="m4c7187c95e" d="M 0 0 
L 0 3.5 
" style="stroke: #000000; stroke-width: 0.8"/>
      </defs>
      <g>
       <use xlink:href="#m4c7187c95e" x="70.063892" y="299.798125" style="stroke: #000000; stroke-width: 0.8"/>
      </g>
     </g>
     <g id="text_1">
      <!-- 0 -->
      <g transform="translate(66.882642 314.396563)scale(0.1 -0.1)">
       <defs>
        <path id="DejaVuSans-30" d="M 2034 4250 
Q 1547 4250 1301 3770 
Q 1056 3291 1056 2328 
Q 1056 1369 1301 889 
Q 1547 409 2034 409 
Q 2525 409 2770 889 
Q 3016 1369 3016 2328 
Q 3016 3291 2770 3770 
Q 2525 4250 2034 4250 
z
M 2034 4750 
Q 2819 4750 3233 4129 
Q 3647 3509 3647 2328 
Q 3647 1150 3233 529 
Q 2819 -91 2034 -91 
Q 1250 -91 836 529 
Q 422 1150 422 2328 
Q 422 3509 836 4129 
Q 1250 4750 2034 4750 
z
" transform="scale(0.015625)"/>
       </defs>
       <use xlink:href="#DejaVuSans-30"/>
      </g>
     </g>
    </g>
    <g id="xtick_2">
     <g id="line2d_2">
      <g>
       <use xlink:href="#m4c7187c95e" x="127.050766" y="299.798125" style="stroke: #000000; stroke-width: 0.8"/>
      </g>
     </g>
     <g id="text_2">
      <!-- 1 -->
      <g transform="translate(123.869516 314.396563)scale(0.1 -0.1)">
       <defs>
        <path id="DejaVuSans-31" d="M 794 531 
L 1825 531 
L 1825 4091 
L 703 3866 
L 703 4441 
L 1819 4666 
L 2450 4666 
L 2450 531 
L 3481 531 
L 3481 0 
L 794 0 
L 794 531 
z
" transform="scale(0.015625)"/>
       </defs>
       <use xlink:href="#DejaVuSans-31"/>
      </g>
     </g>
    </g>
    <g id="xtick_3">
     <g id="line2d_3">
      <g>
       <use xlink:href="#m4c7187c95e" x="184.037641" y="299.798125" style="stroke: #000000; stroke-width: 0.8"/>
      </g>
     </g>
     <g id="text_3">
      <!-- 2 -->
      <g transform="translate(180.856391 314.396563)scale(0.1 -0.1)">
       <defs>
        <path id="DejaVuSans-32" d="M 1228 531 
L 3431 531 
L 3431 0 
L 469 0 
L 469 531 
Q 828 903 1448 1529 
Q 2069 2156 2228 2338 
Q 2531 2678 2651 2914 
Q 2772 3150 2772 3378 
Q 2772 3750 2511 3984 
Q 2250 4219 1831 4219 
Q 1534 4219 1204 4116 
Q 875 4013 500 3803 
L 500 4441 
Q 881 4594 1212 4672 
Q 1544 4750 1819 4750 
Q 2544 4750 2975 4387 
Q 3406 4025 3406 3419 
Q 3406 3131 3298 2873 
Q 3191 2616 2906 2266 
Q 2828 2175 2409 1742 
Q 1991 1309 1228 531 
z
" transform="scale(0.015625)"/>
       </defs>
       <use xlink:href="#DejaVuSans-32"/>
      </g>
     </g>
    </g>
    <g id="xtick_4">
     <g id="line2d_4">
      <g>
       <use xlink:href="#m4c7187c95e" x="241.024515" y="299.798125" style="stroke: #000000; stroke-width: 0.8"/>
      </g>
     </g>
     <g id="text_4">
      <!-- 3 -->
      <g transform="translate(237.843265 314.396563)scale(0.1 -0.1)">
       <defs>
        <path id="DejaVuSans-33" d="M 2597 2516 
Q 3050 2419 3304 2112 
Q 3559 1806 3559 1356 
Q 3559 666 3084 287 
Q 2609 -91 1734 -91 
Q 1441 -91 1130 -33 
Q 819 25 488 141 
L 488 750 
Q 750 597 1062 519 
Q 1375 441 1716 441 
Q 2309 441 2620 675 
Q 2931 909 2931 1356 
Q 2931 1769 2642 2001 
Q 2353 2234 1838 2234 
L 1294 2234 
L 1294 2753 
L 1863 2753 
Q 2328 2753 2575 2939 
Q 2822 3125 2822 3475 
Q 2822 3834 2567 4026 
Q 2313 4219 1838 4219 
Q 1578 4219 1281 4162 
Q 984 4106 628 3988 
L 628 4550 
Q 988 4650 1302 4700 
Q 1616 4750 1894 4750 
Q 2613 4750 3031 4423 
Q 3450 4097 3450 3541 
Q 3450 3153 3228 2886 
Q 3006 2619 2597 2516 
z
" transform="scale(0.015625)"/>
       </defs>
       <use xlink:href="#DejaVuSans-33"/>
      </g>
     </g>
    </g>
    <g id="xtick_5">
     <g id="line2d_5">
      <g>
       <use xlink:href="#m4c7187c95e" x="298.011389" y="299.798125" style="stroke: #000000; stroke-width: 0.8"/>
      </g>
     </g>
     <g id="text_5">
      <!-- 4 -->
      <g transform="translate(294.830139 314.396563)scale(0.1 -0.1)">
       <defs>
        <path id="DejaVuSans-34" d="M 2419 4116 
L 825 1625 
L 2419 1625 
L 2419 4116 
z
M 2253 4666 
L 3047 4666 
L 3047 1625 
L 3713 1625 
L 3713 1100 
L 3047 1100 
L 3047 0 
L 2419 0 
L 2419 1100 
L 313 1100 
L 313 1709 
L 2253 4666 
z
" transform="scale(0.015625)"/>
       </defs>
       <use xlink:href="#DejaVuSans-34"/>
      </g>
     </g>
    </g>
    <g id="xtick_6">
     <g id="line2d_6">
      <g>
       <use xlink:href="#m4c7187c95e" x="354.998263" y="299.798125" style="stroke: #000000; stroke-width: 0.8"/>
      </g>
     </g>
     <g id="text_6">
      <!-- 5 -->
      <g transform="translate(351.817013 314.396563)scale(0.1 -0.1)">
       <defs>
        <path id="DejaVuSans-35" d="M 691 4666 
L 3169 4666 
L 3169 4134 
L 1269 4134 
L 1269 2991 
Q 1406 3038 1543 3061 
Q 1681 3084 1819 3084 
Q 2600 3084 3056 2656 
Q 3513 2228 3513 1497 
Q 3513 744 3044 326 
Q 2575 -91 1722 -91 
Q 1428 -91 1123 -41 
Q 819 9 494 109 
L 494 744 
Q 775 591 1075 516 
Q 1375 441 1709 441 
Q 2250 441 2565 725 
Q 2881 1009 2881 1497 
Q 2881 1984 2565 2268 
Q 2250 2553 1709 2553 
Q 1456 2553 1204 2497 
Q 953 2441 691 2322 
L 691 4666 
z
" transform="scale(0.015625)"/>
       </defs>
       <use xlink:href="#DejaVuSans-35"/>
      </g>
     </g>
    </g>
    <g id="xtick_7">
     <g id="line2d_7">
      <g>
       <use xlink:href="#m4c7187c95e" x="411.985137" y="299.798125" style="stroke: #000000; stroke-width: 0.8"/>
      </g>
     </g>
     <g id="text_7">
      <!-- 6 -->
      <g transform="translate(408.803887 314.396563)scale(0.1 -0.1)">
       <defs>
        <path id="DejaVuSans-36" d="M 2113 2584 
Q 1688 2584 1439 2293 
Q 1191 2003 1191 1497 
Q 1191 994 1439 701 
Q 1688 409 2113 409 
Q 2538 409 2786 701 
Q 3034 994 3034 1497 
Q 3034 2003 2786 2293 
Q 2538 2584 2113 2584 
z
M 3366 4563 
L 3366 3988 
Q 3128 4100 2886 4159 
Q 2644 4219 2406 4219 
Q 1781 4219 1451 3797 
Q 1122 3375 1075 2522 
Q 1259 2794 1537 2939 
Q 1816 3084 2150 3084 
Q 2853 3084 3261 2657 
Q 3669 2231 3669 1497 
Q 3669 778 3244 343 
Q 2819 -91 2113 -91 
Q 1303 -91 875 529 
Q 447 1150 447 2328 
Q 447 3434 972 4092 
Q 1497 4750 2381 4750 
Q 2619 4750 2861 4703 
Q 3103 4656 3366 4563 
z
" transform="scale(0.015625)"/>
       </defs>
       <use xlink:href="#DejaVuSans-36"/>
      </g>
     </g>
    </g>
    <g id="text_8">
     <!-- x -->
     <g transform="translate(246.134062 328.074688)scale(0.1 -0.1)">
      <defs>
       <path id="DejaVuSans-78" d="M 3513 3500 
L 2247 1797 
L 3578 0 
L 2900 0 
L 1881 1375 
L 863 0 
L 184 0 
L 1544 1831 
L 300 3500 
L 978 3500 
L 1906 2253 
L 2834 3500 
L 3513 3500 
z
" transform="scale(0.015625)"/>
      </defs>
      <use xlink:href="#DejaVuSans-78"/>
     </g>
    </g>
   </g>
   <g id="matplotlib.axis_2">
    <g id="ytick_1">
     <g id="line2d_8">
      <defs>
       <path id="m3c4bcbd839" d="M 0 0 
L -3.5 0 
" style="stroke: #000000; stroke-width: 0.8"/>
      </defs>
      <g>
       <use xlink:href="#m3c4bcbd839" x="52.160938" y="292.374429" style="stroke: #000000; stroke-width: 0.8"/>
      </g>
     </g>
     <g id="text_9">
      <!-- −1.5 -->
      <g transform="translate(20.878125 296.173648)scale(0.1 -0.1)">
       <defs>
        <path id="DejaVuSans-2212" d="M 678 2272 
L 4684 2272 
L 4684 1741 
L 678 1741 
L 678 2272 
z
" transform="scale(0.015625)"/>
        <path id="DejaVuSans-2e" d="M 684 794 
L 1344 794 
L 1344 0 
L 684 0 
L 684 794 
z
" transform="scale(0.015625)"/>
       </defs>
       <use xlink:href="#DejaVuSans-2212"/>
       <use xlink:href="#DejaVuSans-31" x="83.789062"/>
       <use xlink:href="#DejaVuSans-2e" x="147.412109"/>
       <use xlink:href="#DejaVuSans-35" x="179.199219"/>
      </g>
     </g>
    </g>
    <g id="ytick_2">
     <g id="line2d_9">
      <g>
       <use xlink:href="#m3c4bcbd839" x="52.160938" y="248.156914" style="stroke: #000000; stroke-width: 0.8"/>
      </g>
     </g>
     <g id="text_10">
      <!-- −1.0 -->
      <g transform="translate(20.878125 251.956133)scale(0.1 -0.1)">
       <use xlink:href="#DejaVuSans-2212"/>
       <use xlink:href="#DejaVuSans-31" x="83.789062"/>
       <use xlink:href="#DejaVuSans-2e" x="147.412109"/>
       <use xlink:href="#DejaVuSans-30" x="179.199219"/>
      </g>
     </g>
    </g>
    <g id="ytick_3">
     <g id="line2d_10">
      <g>
       <use xlink:href="#m3c4bcbd839" x="52.160938" y="203.939399" style="stroke: #000000; stroke-width: 0.8"/>
      </g>
     </g>
     <g id="text_11">
      <!-- −0.5 -->
      <g transform="translate(20.878125 207.738618)scale(0.1 -0.1)">
       <use xlink:href="#DejaVuSans-2212"/>
       <use xlink:href="#DejaVuSans-30" x="83.789062"/>
       <use xlink:href="#DejaVuSans-2e" x="147.412109"/>
       <use xlink:href="#DejaVuSans-35" x="179.199219"/>
      </g>
     </g>
    </g>
    <g id="ytick_4">
     <g id="line2d_11">
      <g>
       <use xlink:href="#m3c4bcbd839" x="52.160938" y="159.721884" style="stroke: #000000; stroke-width: 0.8"/>
      </g>
     </g>
     <g id="text_12">
      <!-- 0.0 -->
      <g transform="translate(29.257812 163.521103)scale(0.1 -0.1)">
       <use xlink:href="#DejaVuSans-30"/>
       <use xlink:href="#DejaVuSans-2e" x="63.623047"/>
       <use xlink:href="#DejaVuSans-30" x="95.410156"/>
      </g>
     </g>
    </g>
    <g id="ytick_5">
     <g id="line2d_12">
      <g>
       <use xlink:href="#m3c4bcbd839" x="52.160938" y="115.504369" style="stroke: #000000; stroke-width: 0.8"/>
      </g>
     </g>
     <g id="text_13">
      <!-- 0.5 -->
      <g transform="translate(29.257812 119.303588)scale(0.1 -0.1)">
       <use xlink:href="#DejaVuSans-30"/>
       <use xlink:href="#DejaVuSans-2e" x="63.623047"/>
       <use xlink:href="#DejaVuSans-35" x="95.410156"/>
      </g>
     </g>
    </g>
    <g id="ytick_6">
     <g id="line2d_13">
      <g>
       <use xlink:href="#m3c4bcbd839" x="52.160938" y="71.286854" style="stroke: #000000; stroke-width: 0.8"/>
      </g>
     </g>
     <g id="text_14">
      <!-- 1.0 -->
      <g transform="translate(29.257812 75.086073)scale(0.1 -0.1)">
       <use xlink:href="#DejaVuSans-31"/>
       <use xlink:href="#DejaVuSans-2e" x="63.623047"/>
       <use xlink:href="#DejaVuSans-30" x="95.410156"/>
      </g>
     </g>
    </g>
    <g id="ytick_7">
     <g id="line2d_14">
      <g>
       <use xlink:href="#m3c4bcbd839" x="52.160938" y="27.069339" style="stroke: #000000; stroke-width: 0.8"/>
      </g>
     </g>
     <g id="text_15">
      <!-- 1.5 -->
      <g transform="translate(29.257812 30.868557)scale(0.1 -0.1)">
       <use xlink:href="#DejaVuSans-31"/>
       <use xlink:href="#DejaVuSans-2e" x="63.623047"/>
       <use xlink:href="#DejaVuSans-35" x="95.410156"/>
      </g>
     </g>
    </g>
    <g id="text_16">
     <!-- y -->
     <g transform="translate(14.798438 164.0175)rotate(-90)scale(0.1 -0.1)">
      <defs>
       <path id="DejaVuSans-79" d="M 2059 -325 
Q 1816 -950 1584 -1140 
Q 1353 -1331 966 -1331 
L 506 -1331 
L 506 -850 
L 844 -850 
Q 1081 -850 1212 -737 
Q 1344 -625 1503 -206 
L 1606 56 
L 191 3500 
L 800 3500 
L 1894 763 
L 2988 3500 
L 3597 3500 
L 2059 -325 
z
" transform="scale(0.015625)"/>
      </defs>
      <use xlink:href="#DejaVuSans-79"/>
     </g>
    </g>
   </g>
   <g id="line2d_15">
    <path d="M 70.063892 159.721884 
L 73.680651 154.112988 
L 77.297409 148.526676 
L 80.914168 142.985444 
L 84.530926 137.511604 
L 88.147685 132.127197 
L 91.764443 126.853903 
L 95.381202 121.712958 
L 98.99796 116.725061 
L 102.614718 111.910297 
L 106.231477 107.288053 
L 109.848235 102.876942 
L 113.464994 98.694726 
L 117.081752 94.758244 
L 120.698511 91.083348 
L 124.315269 87.684835 
L 127.932028 84.57639 
L 131.548786 81.770529 
L 135.165545 79.278551 
L 138.782303 77.11049 
L 142.399062 75.275075 
L 146.01582 73.779699 
L 149.632579 72.630381 
L 153.249337 71.831749 
L 156.866096 71.387021 
L 160.482854 71.297985 
L 164.099613 71.565002 
L 167.716371 72.186995 
L 171.33313 73.16146 
L 174.949888 74.484474 
L 178.566647 76.150708 
L 182.183405 78.153454 
L 185.800164 80.484647 
L 189.416922 83.134901 
L 193.033681 86.093544 
L 196.650439 89.348662 
L 200.267198 92.887148 
L 203.883956 96.694753 
L 207.500715 100.756147 
L 211.117473 105.054975 
L 214.734232 109.573928 
L 218.35099 114.294808 
L 221.967749 119.198608 
L 225.584507 124.26558 
L 229.201266 129.475322 
L 232.818024 134.806857 
L 236.434783 140.238715 
L 240.051541 145.749026 
L 243.6683 151.3156 
L 247.285058 156.916023 
L 250.901817 162.527745 
L 254.518575 168.128168 
L 258.135334 173.694742 
L 261.752092 179.205053 
L 265.368851 184.636911 
L 268.985609 189.968446 
L 272.602368 195.178188 
L 276.219126 200.24516 
L 279.835885 205.14896 
L 283.452643 209.86984 
L 287.069402 214.388792 
L 290.68616 218.687621 
L 294.302919 222.749014 
L 297.919677 226.55662 
L 301.536436 230.095106 
L 305.153194 233.350224 
L 308.769953 236.308867 
L 312.386711 238.95912 
L 316.00347 241.290314 
L 319.620228 243.29306 
L 323.236987 244.959294 
L 326.853745 246.282308 
L 330.470504 247.256773 
L 334.087262 247.878766 
L 337.704021 248.145783 
L 341.320779 248.056747 
L 344.937538 247.612018 
L 348.554296 246.813387 
L 352.171055 245.664069 
L 355.787813 244.168692 
L 359.404572 242.333278 
L 363.02133 240.165217 
L 366.638089 237.673239 
L 370.254847 234.867378 
L 373.871606 231.758933 
L 377.488364 228.36042 
L 381.105123 224.685524 
L 384.721881 220.749042 
L 388.33864 216.566826 
L 391.955398 212.155714 
L 395.572157 207.533471 
L 399.188915 202.718707 
L 402.805673 197.73081 
L 406.422432 192.589864 
L 410.03919 187.316571 
L 413.655949 181.932164 
L 417.272707 176.458323 
L 420.889466 170.917091 
L 424.506224 165.33078 
L 428.122983 159.721884 
" clip-path="url(#p152945b259)" style="fill: none; stroke: #ff0000; stroke-width: 2; stroke-linecap: square"/>
   </g>
   <g id="patch_3">
    <path d="M 52.160938 299.798125 
L 52.160938 22.318125 
" style="fill: none; stroke: #000000; stroke-width: 0.8; stroke-linejoin: miter; stroke-linecap: square"/>
   </g>
   <g id="patch_4">
    <path d="M 446.025937 299.798125 
L 446.025937 22.318125 
" style="fill: none; stroke: #000000; stroke-width: 0.8; stroke-linejoin: miter; stroke-linecap: square"/>
   </g>
   <g id="patch_5">
    <path d="M 52.160938 299.798125 
L 446.025937 299.798125 
" style="fill: none; stroke: #000000; stroke-width: 0.8; stroke-linejoin: miter; stroke-linecap: square"/>
   </g>
   <g id="patch_6">
    <path d="M 52.160938 22.318125 
L 446.025937 22.318125 
" style="fill: none; stroke: #000000; stroke-width: 0.8; stroke-linejoin: miter; stroke-linecap: square"/>
   </g>
   <g id="text_17">
    <!-- Scatter and line plot -->
    <g transform="translate(188.109062 16.318125)scale(0.12 -0.12)">
     <defs>
      <path id="DejaVuSans-53" d="M 3425 4513 
L 3425 3897 
Q 3066 4069 2747 4153 
Q 2428 4238 2131 4238 
Q 1616 4238 1336 4038 
Q 1056 3838 1056 3469 
Q 1056 3159 1242 3001 
Q 1428 2844 1947 2747 
L 2328 2669 
Q 3034 2534 3370 2195 
Q 3706 1856 3706 1288 
Q 3706 609 3251 259 
Q 2797 -91 1919 -91 
Q 1588 -91 1214 -16 
Q 841 59 441 206 
L 441 856 
Q 825 641 1194 531 
Q 1563 422 1919 422 
Q 2459 422 2753 634 
Q 3047 847 3047 1241 
Q 3047 1584 2836 1778 
Q 2625 1972 2144 2069 
L 1759 2144 
Q 1053 2284 737 2584 
Q 422 2884 422 3419 
Q 422 4038 858 4394 
Q 1294 4750 2059 4750 
Q 2388 4750 2728 4690 
Q 3069 4631 3425 4513 
z
" transform="scale(0.015625)"/>
      <path id="DejaVuSans-63" d="M 3122 3366 
L 3122 2828 
Q 2878 2963 2633 3030 
Q 2388 3097 2138 3097 
Q 1578 3097 1268 2742 
Q 959 2388 959 1747 
Q 959 1106 1268 751 
Q 1578 397 2138 397 
Q 2388 397 2633 464 
Q 2878 531 3122 666 
L 3122 134 
Q 2881 22 2623 -34 
Q 2366 -91 2075 -91 
Q 1284 -91 818 406 
Q 353 903 353 1747 
Q 353 2603 823 3093 
Q 1294 3584 2113 3584 
Q 2378 3584 2631 3529 
Q 2884 3475 3122 3366 
z
" transform="scale(0.015625)"/>
      <path id="DejaVuSans-61" d="M 2194 1759 
Q 1497 1759 1228 1600 
Q 959 1441 959 1056 
Q 959 750 1161 570 
Q 1363 391 1709 391 
Q 2188 391 2477 730 
Q 2766 1069 2766 1631 
L 2766 1759 
L 2194 1759 
z
M 3341 1997 
L 3341 0 
L 2766 0 
L 2766 531 
Q 2569 213 2275 61 
Q 1981 -91 1556 -91 
Q 1019 -91 701 211 
Q 384 513 384 1019 
Q 384 1609 779 1909 
Q 1175 2209 1959 2209 
L 2766 2209 
L 2766 2266 
Q 2766 2663 2505 2880 
Q 2244 3097 1772 3097 
Q 1472 3097 1187 3025 
Q 903 2953 641 2809 
L 641 3341 
Q 956 3463 1253 3523 
Q 1550 3584 1831 3584 
Q 2591 3584 2966 3190 
Q 3341 2797 3341 1997 
z
" transform="scale(0.015625)"/>
      <path id="DejaVuSans-74" d="M 1172 4494 
L 1172 3500 
L 2356 3500 
L 2356 3053 
L 1172 3053 
L 1172 1153 
Q 1172 725 1289 603 
Q 1406 481 1766 481 
L 2356 481 
L 2356 0 
L 1766 0 
Q 1100 0 847 248 
Q 594 497 594 1153 
L 594 3053 
L 172 3053 
L 172 3500 
L 594 3500 
L 594 4494 
L 1172 4494 
z
" transform="scale(0.015625)"/>
      <path id="DejaVuSans-65" d="M 3597 1894 
L 3597 1613 
L 953 1613 
Q 991 1019 1311 708 
Q 1631 397 2203 397 
Q 2534 397 2845 478 
Q 3156 559 3463 722 
L 3463 178 
Q 3153 47 2828 -22 
Q 2503 -91 2169 -91 
Q 1331 -91 842 396 
Q 353 884 353 1716 
Q 353 2575 817 3079 
Q 1281 3584 2069 3584 
Q 2775 3584 3186 3129 
Q 3597 2675 3597 1894 
z
M 3022 2063 
Q 3016 2534 2758 2815 
Q 2500 3097 2075 3097 
Q 1594 3097 1305 2825 
Q 1016 2553 972 2059 
L 3022 2063 
z
" transform="scale(0.015625)"/>
      <path id="DejaVuSans-72" d="M 2631 2963 
Q 2534 3019 2420 3045 
Q 2306 3072 2169 3072 
Q 1681 3072 1420 2755 
Q 1159 2438 1159 1844 
L 1159 0 
L 581 0 
L 581 3500 
L 1159 3500 
L 1159 2956 
Q 1341 3275 1631 3429 
Q 1922 3584 2338 3584 
Q 2397 3584 2469 3576 
Q 2541 3569 2628 3553 
L 2631 2963 
z
" transform="scale(0.015625)"/>
      <path id="DejaVuSans-20" transform="scale(0.015625)"/>
      <path id="DejaVuSans-6e" d="M 3513 2113 
L 3513 0 
L 2938 0 
L 2938 2094 
Q 2938 2591 2744 2837 
Q 2550 3084 2163 3084 
Q 1697 3084 1428 2787 
Q 1159 2491 1159 1978 
L 1159 0 
L 581 0 
L 581 3500 
L 1159 3500 
L 1159 2956 
Q 1366 3272 1645 3428 
Q 1925 3584 2291 3584 
Q 2894 3584 3203 3211 
Q 3513 2838 3513 2113 
z
" transform="scale(0.015625)"/>
      <path id="DejaVuSans-64" d="M 2906 2969 
L 2906 4863 
L 3481 4863 
L 3481 0 
L 2906 0 
L 2906 525 
Q 2725 213 2448 61 
Q 2172 -91 1784 -91 
Q 1150 -91 751 415 
Q 353 922 353 1747 
Q 353 2572 751 3078 
Q 1150 3584 1784 3584 
Q 2172 3584 2448 3432 
Q 2725 3281 2906 2969 
z
M 947 1747 
Q 947 1113 1208 752 
Q 1469 391 1925 391 
Q 2381 391 2643 752 
Q 2906 1113 2906 1747 
Q 2906 2381 2643 2742 
Q 2381 3103 1925 3103 
Q 1469 3103 1208 2742 
Q 947 2381 947 1747 
z
" transform="scale(0.015625)"/>
      <path id="DejaVuSans-6c" d="M 603 4863 
L 1178 4863 
L 1178 0 
L 603 0 
L 603 4863 
z
" transform="scale(0.015625)"/>
      <path id="DejaVuSans-69" d="M 603 3500 
L 1178 3500 
L 1178 0 
L 603 0 
L 603 3500 
z
M 603 4863 
L 1178 4863 
L 1178 4134 
L 603 4134 
L 603 4863 
z
" transform="scale(0.015625)"/>
      <path id="DejaVuSans-70" d="M 1159 525 
L 1159 -1331 
L 581 -1331 
L 581 3500 
L 1159 3500 
L 1159 2969 
Q 1341 3281 1617 3432 
Q 1894 3584 2278 3584 
Q 2916 3584 3314 3078 
Q 3713 2572 3713 1747 
Q 3713 922 3314 415 
Q 2916 -91 2278 -91 
Q 1894 -91 1617 61 
Q 1341 213 1159 525 
z
M 3116 1747 
Q 3116 2381 2855 2742 
Q 2594 3103 2138 3103 
Q 1681 3103 1420 2742 
Q 1159 2381 1159 1747 
Q 1159 1113 1420 752 
Q 1681 391 2138 391 
Q 2594 391 2855 752 
Q 3116 1113 3116 1747 
z
" transform="scale(0.015625)"/>
      <path id="DejaVuSans-6f" d="M 1959 3097 
Q 1497 3097 1228 2736 
Q 959 2375 959 1747 
Q 959 1119 1226 758 
Q 1494 397 1959 397 
Q 2419 397 2687 759 
Q 2956 1122 2956 1747 
Q 2956 2369 2687 2733 
Q 2419 3097 1959 3097 
z
M 1959 3584 
Q 2709 3584 3137 3096 
Q 3566 2609 3566 1747 
Q 3566 888 3137 398 
Q 2709 -91 1959 -91 
Q 1206 -91 779 398 
Q 353 888 353 1747 
Q 353 2609 779 3096 
Q 1206 3584 1959 3584 
z
" transform="scale(0.015625)"/>
     </defs>
     <use xlink:href="#DejaVuSans-53"/>
     <use xlink:href="#DejaVuSans-63" x="63.476562"/>
     <use xlink:href="#DejaVuSans-61" x="118.457031"/>
     <use xlink:href="#DejaVuSans-74" x="179.736328"/>
     <use xlink:href="#DejaVuSans-74" x="218.945312"/>
     <use xlink:href="#DejaVuSans-65" x="258.154297"/>
     <use xlink:href="#DejaVuSans-72" x="319.677734"/>
     <use xlink:href="#DejaVuSans-20" x="360.791016"/>
     <use xlink:href="#DejaVuSans-61" x="392.578125"/>
     <use xlink:href="#DejaVuSans-6e" x="453.857422"/>
     <use xlink:href="#DejaVuSans-64" x="517.236328"/>
     <use xlink:href="#DejaVuSans-20" x="580.712891"/>
     <use xlink:href="#DejaVuSans-6c" x="612.5"/>
     <use xlink:href="#DejaVuSans-69" x="640.283203"/>
     <use xlink:href="#DejaVuSans-6e" x="668.066406"/>
     <use xlink:href="#DejaVuSans-65" x="731.445312"/>
     <use xlink:href="#DejaVuSans-20" x="792.96875"/>
     <use xlink:href="#DejaVuSans-70" x="824.755859"/>
     <use xlink:href="#DejaVuSans-6c" x="888.232422"/>
     <use xlink:href="#DejaVuSans-6f" x="916.015625"/>
     <use xlink:href="#DejaVuSans-74" x="977.197266"/>
    </g>
   </g>
   <g id="legend_1">
    <g id="patch_7">
     <path d="M 376.313438 59.674375 
L 439.025938 59.674375 
Q 441.025938 59.674375 441.025938 57.674375 
L 441.025938 29.318125 
Q 441.025938 27.318125 439.025938 27.318125 
L 376.313438 27.318125 
Q 374.313438 27.318125 374.313438 29.318125 
L 374.313438 57.674375 
Q 374.313438 59.674375 376.313438 59.674375 
z
" style="fill: #ffffff; opacity: 0.8; stroke: #cccccc; stroke-linejoin: miter"/>
    </g>
    <g id="PathCollection_2">
     <g>
      <use xlink:href="#m89f560ca08" x="388.313438" y="36.291562" style="fill: #1f77b4; stroke: #1f77b4"/>
     </g>
    </g>
    <g id="text_18">
     <!-- points -->
     <g transform="translate(406.313438 38.916562)scale(0.1 -0.1)">
      <defs>
       <path id="DejaVuSans-73" d="M 2834 3397 
L 2834 2853 
Q 2591 2978 2328 3040 
Q 2066 3103 1784 3103 
Q 1356 3103 1142 2972 
Q 928 2841 928 2578 
Q 928 2378 1081 2264 
Q 1234 2150 1697 2047 
L 1894 2003 
Q 2506 1872 2764 1633 
Q 3022 1394 3022 966 
Q 3022 478 2636 193 
Q 2250 -91 1575 -91 
Q 1294 -91 989 -36 
Q 684 19 347 128 
L 347 722 
Q 666 556 975 473 
Q 1284 391 1588 391 
Q 1994 391 2212 530 
Q 2431 669 2431 922 
Q 2431 1156 2273 1281 
Q 2116 1406 1581 1522 
L 1381 1569 
Q 847 1681 609 1914 
Q 372 2147 372 2553 
Q 372 3047 722 3315 
Q 1072 3584 1716 3584 
Q 2034 3584 2315 3537 
Q 2597 3491 2834 3397 
z
" transform="scale(0.015625)"/>
      </defs>
      <use xlink:href="#DejaVuSans-70"/>
      <use xlink:href="#DejaVuSans-6f" x="63.476562"/>
      <use xlink:href="#DejaVuSans-69" x="124.658203"/>
      <use xlink:href="#DejaVuSans-6e" x="152.441406"/>
      <use xlink:href="#DejaVuSans-74" x="215.820312"/>
      <use xlink:href="#DejaVuSans-73" x="255.029297"/>
     </g>
    </g>
    <g id="line2d_16">
     <path d="M 378.313438 50.094688 
L 388.313438 50.094688 
L 398.313438 50.094688 
" style="fill: none; stroke: #ff0000; stroke-width: 2; stroke-linecap: square"/>
    </g>
    <g id="text_19">
     <!-- sine -->
     <g transform="translate(406.313438 53.594688)scale(0.1 -0.1)">
      <use xlink:href="#DejaVuSans-73"/>
      <use xlink:href="#DejaVuSans-69" x="52.099609"/>
      <use xlink:href="#DejaVuSans-6e" x="79.882812"/>
      <use xlink:href="#DejaVuSans-65" x="143.261719"/>
     </g>
    </g>
   </g>
  </g>
 </g>
 <defs>
  <clipPath id="p152945b259">
   <rect x="52.160938" y="22.318125" width="393.865" height="277.48"/>
  </clipPath>
 </defs>
</svg>
