<?xml version="1.0" encoding="utf-8" standalone="no"?>
<!DOCTYPE svg PUBLIC "-//W3C//DTD SVG 1.1//EN"
  "http://www.w3.org/Graphics/SVG/1.1/DTD/svg11.dtd">
<svg xmlns:xlink="http://www.w3.org/1999/xlink" width="449.119062pt" height="333.919219pt" viewBox="0 0 449.119062 333.919219" xmlns="http://www.w3.org/2000/svg" version="1.1">
 <metadata>
  <rdf:RDF xmlns:dc="http://purl.org/dc/elements/1.1/" xmlns:cc="http://creativecommons.org/ns#" xmlns:rdf="http://www.w3.org/1999/02/22-rdf-syntax-ns#">
   <cc:Work>
    <dc:type rdf:resource="http://purl.org/dc/dcmitype/StillImage"/>
    <dc:date>2022-10-21T12:34:22.447863</dc:date>
    <dc:format>image/svg+xml</dc:format>
    <dc:creator>
     <cc:Agent>
      <dc:title>Matplotlib v3.5.1, https://matplotlib.org/</dc:title>
     </cc:Agent>
    </dc:creator>
   </cc:Work>
  </rdf:RDF>
 </metadata>
 <defs>
  <style type="text/css">*{stroke-linejoin: round; stroke-linecap: butt}</style>
 </defs>
 <g id="figure_1">
  <g id="patch_1">
   <path d="M 0 333.919219 
L 449.119062 333.919219 
L 449.119062 0 
L 0 0 
z
" style="fill: #ffffff"/>
  </g>
  <g id="axes_1">
   <g id="patch_2">
    <path d="M 53.389063 292.185 
L 441.919063 292.185 
L 441.919063 21.935625 
L 53.389063 21.935625 
z
" style="fill: #eaeaf2"/>
   </g>
   <g id="matplotlib.axis_1">
    <g id="xtick_1">
     <g id="line2d_1">
      <path d="M 71.049517 292.185 
L 71.049517 21.935625 
" clip-path="url(#pab8ca390fc)" style="fill: none; stroke: #ffffff; stroke-linecap: round"/>
     </g>
     <g id="text_1">
      <!-- 0 -->
      <g style="fill: #262626" transform="translate(67.991001 309.558594)scale(0.11 -0.11)">
       <defs>
        <path id="ArialMT-30" d="M 266 2259 
Q 266 3072 433 3567 
Q 600 4063 929 4331 
Q 1259 4600 1759 4600 
Q 2128 4600 2406 4451 
Q 2684 4303 2865 4023 
Q 3047 3744 3150 3342 
Q 3253 2941 3253 2259 
Q 3253 1453 3087 958 
Q 2922 463 2592 192 
Q 2263 -78 1759 -78 
Q 1097 -78 719 397 
Q 266 969 266 2259 
z
M 844 2259 
Q 844 1131 1108 757 
Q 1372 384 1759 384 
Q 2147 384 2411 759 
Q 2675 1134 2675 2259 
Q 2675 3391 2411 3762 
Q 2147 4134 1753 4134 
Q 1366 4134 1134 3806 
Q 844 3388 844 2259 
z
" transform="scale(0.015625)"/>
       </defs>
       <use xlink:href="#ArialMT-30"/>
      </g>
     </g>
    </g>
    <g id="xtick_2">
     <g id="line2d_2">
      <path d="M 127.26449 292.185 
L 127.26449 21.935625 
" clip-path="url(#pab8ca390fc)" style="fill: none; stroke: #ffffff; stroke-linecap: round"/>
     </g>
     <g id="text_2">
      <!-- 1 -->
      <g style="fill: #262626" transform="translate(124.205974 309.558594)scale(0.11 -0.11)">
       <defs>
        <path id="ArialMT-31" d="M 2384 0 
L 1822 0 
L 1822 3584 
Q 1619 3391 1289 3197 
Q 959 3003 697 2906 
L 697 3450 
Q 1169 3672 1522 3987 
Q 1875 4303 2022 4600 
L 2384 4600 
L 2384 0 
z
" transform="scale(0.015625)"/>
       </defs>
       <use xlink:href="#ArialMT-31"/>
      </g>
     </g>
    </g>
    <g id="xtick_3">
     <g id="line2d_3">
      <path d="M 183.479463 292.185 
L 183.479463 21.935625 
" clip-path="url(#pab8ca390fc)" style="fill: none; stroke: #ffffff; stroke-linecap: round"/>
     </g>
     <g id="text_3">
      <!-- 2 -->
      <g style="fill: #262626" transform="translate(180.420947 309.558594)scale(0.11 -0.11)">
       <defs>
        <path id="ArialMT-32" d="M 3222 541 
L 3222 0 
L 194 0 
Q 188 203 259 391 
Q 375 700 629 1000 
Q 884 1300 1366 1694 
Q 2113 2306 2375 2664 
Q 2638 3022 2638 3341 
Q 2638 3675 2398 3904 
Q 2159 4134 1775 4134 
Q 1369 4134 1125 3890 
Q 881 3647 878 3216 
L 300 3275 
Q 359 3922 746 4261 
Q 1134 4600 1788 4600 
Q 2447 4600 2831 4234 
Q 3216 3869 3216 3328 
Q 3216 3053 3103 2787 
Q 2991 2522 2730 2228 
Q 2469 1934 1863 1422 
Q 1356 997 1212 845 
Q 1069 694 975 541 
L 3222 541 
z
" transform="scale(0.015625)"/>
       </defs>
       <use xlink:href="#ArialMT-32"/>
      </g>
     </g>
    </g>
    <g id="xtick_4">
     <g id="line2d_4">
      <path d="M 239.694435 292.185 
L 239.694435 21.935625 
" clip-path="url(#pab8ca390fc)" style="fill: none; stroke: #ffffff; stroke-linecap: round"/>
     </g>
     <g id="text_4">
      <!-- 3 -->
      <g style="fill: #262626" transform="translate(236.63592 309.558594)scale(0.11 -0.11)">
       <defs>
        <path id="ArialMT-33" d="M 269 1209 
L 831 1284 
Q 928 806 1161 595 
Q 1394 384 1728 384 
Q 2125 384 2398 659 
Q 2672 934 2672 1341 
Q 2672 1728 2419 1979 
Q 2166 2231 1775 2231 
Q 1616 2231 1378 2169 
L 1441 2663 
Q 1497 2656 1531 2656 
Q 1891 2656 2178 2843 
Q 2466 3031 2466 3422 
Q 2466 3731 2256 3934 
Q 2047 4138 1716 4138 
Q 1388 4138 1169 3931 
Q 950 3725 888 3313 
L 325 3413 
Q 428 3978 793 4289 
Q 1159 4600 1703 4600 
Q 2078 4600 2393 4439 
Q 2709 4278 2876 4000 
Q 3044 3722 3044 3409 
Q 3044 3113 2884 2869 
Q 2725 2625 2413 2481 
Q 2819 2388 3044 2092 
Q 3269 1797 3269 1353 
Q 3269 753 2831 336 
Q 2394 -81 1725 -81 
Q 1122 -81 723 278 
Q 325 638 269 1209 
z
" transform="scale(0.015625)"/>
       </defs>
       <use xlink:href="#ArialMT-33"/>
      </g>
     </g>
    </g>
    <g id="xtick_5">
     <g id="line2d_5">
      <path d="M 295.909408 292.185 
L 295.909408 21.935625 
" clip-path="url(#pab8ca390fc)" style="fill: none; stroke: #ffffff; stroke-linecap: round"/>
     </g>
     <g id="text_5">
      <!-- 4 -->
      <g style="fill: #262626" transform="translate(292.850892 309.558594)scale(0.11 -0.11)">
       <defs>
        <path id="ArialMT-34" d="M 2069 0 
L 2069 1097 
L 81 1097 
L 81 1613 
L 2172 4581 
L 2631 4581 
L 2631 1613 
L 3250 1613 
L 3250 1097 
L 2631 1097 
L 2631 0 
L 2069 0 
z
M 2069 1613 
L 2069 3678 
L 634 1613 
L 2069 1613 
z
" transform="scale(0.015625)"/>
       </defs>
       <use xlink:href="#ArialMT-34"/>
      </g>
     </g>
    </g>
    <g id="xtick_6">
     <g id="line2d_6">
      <path d="M 352.124381 292.185 
L 352.124381 21.935625 
" clip-path="url(#pab8ca390fc)" style="fill: none; stroke: #ffffff; stroke-linecap: round"/>
     </g>
     <g id="text_6">
      <!-- 5 -->
      <g style="fill: #262626" transform="translate(349.065865 309.558594)scale(0.11 -0.11)">
       <defs>
        <path id="ArialMT-35" d="M 266 1200 
L 856 1250 
Q 922 819 1161 601 
Q 1400 384 1738 384 
Q 2144 384 2425 690 
Q 2706 997 2706 1503 
Q 2706 1984 2436 2262 
Q 2166 2541 1728 2541 
Q 1456 2541 1237 2417 
Q 1019 2294 894 2097 
L 366 2166 
L 809 4519 
L 3088 4519 
L 3088 3981 
L 1259 3981 
L 1013 2750 
Q 1425 3038 1878 3038 
Q 2478 3038 2890 2622 
Q 3303 2206 3303 1553 
Q 3303 931 2941 478 
Q 2500 -78 1738 -78 
Q 1113 -78 717 272 
Q 322 622 266 1200 
z
" transform="scale(0.015625)"/>
       </defs>
       <use xlink:href="#ArialMT-35"/>
      </g>
     </g>
    </g>
    <g id="xtick_7">
     <g id="line2d_7">
      <path d="M 408.339354 292.185 
L 408.339354 21.935625 
" clip-path="url(#pab8ca390fc)" style="fill: none; stroke: #ffffff; stroke-linecap: round"/>
     </g>
     <g id="text_7">
      <!-- 6 -->
      <g style="fill: #262626" transform="translate(405.280838 309.558594)scale(0.11 -0.11)">
       <defs>
        <path id="ArialMT-36" d="M 3184 3459 
L 2625 3416 
Q 2550 3747 2413 3897 
Q 2184 4138 1850 4138 
Q 1581 4138 1378 3988 
Q 1113 3794 959 3422 
Q 806 3050 800 2363 
Q 1003 2672 1297 2822 
Q 1591 2972 1913 2972 
Q 2475 2972 2870 2558 
Q 3266 2144 3266 1488 
Q 3266 1056 3080 686 
Q 2894 316 2569 119 
Q 2244 -78 1831 -78 
Q 1128 -78 684 439 
Q 241 956 241 2144 
Q 241 3472 731 4075 
Q 1159 4600 1884 4600 
Q 2425 4600 2770 4297 
Q 3116 3994 3184 3459 
z
M 888 1484 
Q 888 1194 1011 928 
Q 1134 663 1356 523 
Q 1578 384 1822 384 
Q 2178 384 2434 671 
Q 2691 959 2691 1453 
Q 2691 1928 2437 2201 
Q 2184 2475 1800 2475 
Q 1419 2475 1153 2201 
Q 888 1928 888 1484 
z
" transform="scale(0.015625)"/>
       </defs>
       <use xlink:href="#ArialMT-36"/>
      </g>
     </g>
    </g>
    <g id="text_8">
     <!-- x -->
     <g style="fill: #262626" transform="translate(244.654063 324.334219)scale(0.12 -0.12)">
      <defs>
       <path id="ArialMT-78" d="M 47 0 
L 1259 1725 
L 138 3319 
L 841 3319 
L 1350 2541 
Q 1494 2319 1581 2169 
Q 1719 2375 1834 2534 
L 2394 3319 
L 3066 3319 
L 1919 1756 
L 3153 0 
L 2463 0 
L 1781 1031 
L 1600 1309 
L 728 0 
L 47 0 
z
" transform="scale(0.015625)"/>
      </defs>
      <use xlink:href="#ArialMT-78"/>
     </g>
    </g>
   </g>
   <g id="matplotlib.axis_2">
    <g id="ytick_1">
     <g id="line2d_8">
      <path d="M 53.389063 284.954752 
L 441.919063 284.954752 
" clip-path="url(#pab8ca390fc)" style="fill: none; stroke: #ffffff; stroke-linecap: round"/>
     </g>
     <g id="text_9">
      <!-- −1.5 -->
      <g style="fill: #262626" transform="translate(22.174375 288.891549)scale(0.11 -0.11)">
       <defs>
        <path id="ArialMT-2212" d="M 3381 1997 
L 356 1997 
L 356 2522 
L 3381 2522 
L 3381 1997 
z
" transform="scale(0.015625)"/>
        <path id="ArialMT-2e" d="M 581 0 
L 581 641 
L 1222 641 
L 1222 0 
L 581 0 
z
" transform="scale(0.015625)"/>
       </defs>
       <use xlink:href="#ArialMT-2212"/>
       <use xlink:href="#ArialMT-31" x="58.398438"/>
       <use xlink:href="#ArialMT-2e" x="114.013672"/>
       <use xlink:href="#ArialMT-35" x="141.796875"/>
      </g>
     </g>
    </g>
    <g id="ytick_2">
     <g id="line2d_9">
      <path d="M 53.389063 241.889465 
L 441.919063 241.889465 
" clip-path="url(#pab8ca390fc)" style="fill: none; stroke: #ffffff; stroke-linecap: round"/>
     </g>
     <g id="text_10">
      <!-- −1.0 -->
      <g style="fill: #262626" transform="translate(22.174375 245.826262)scale(0.11 -0.11)">
       <use xlink:href="#ArialMT-2212"/>
       <use xlink:href="#ArialMT-31" x="58.398438"/>
       <use xlink:href="#ArialMT-2e" x="114.013672"/>
       <use xlink:href="#ArialMT-30" x="141.796875"/>
      </g>
     </g>
    </g>
    <g id="ytick_3">
     <g id="line2d_10">
      <path d="M 53.389063 198.824178 
L 441.919063 198.824178 
" clip-path="url(#pab8ca390fc)" style="fill: none; stroke: #ffffff; stroke-linecap: round"/>
     </g>
     <g id="text_11">
      <!-- −0.5 -->
      <g style="fill: #262626" transform="translate(22.174375 202.760975)scale(0.11 -0.11)">
       <use xlink:href="#ArialMT-2212"/>
       <use xlink:href="#ArialMT-30" x="58.398438"/>
       <use xlink:href="#ArialMT-2e" x="114.013672"/>
       <use xlink:href="#ArialMT-35" x="141.796875"/>
      </g>
     </g>
    </g>
    <g id="ytick_4">
     <g id="line2d_11">
      <path d="M 53.389063 155.758891 
L 441.919063 155.758891 
" clip-path="url(#pab8ca390fc)" style="fill: none; stroke: #ffffff; stroke-linecap: round"/>
     </g>
     <g id="text_12">
      <!-- 0.0 -->
      <g style="fill: #262626" transform="translate(28.599063 159.695688)scale(0.11 -0.11)">
       <use xlink:href="#ArialMT-30"/>
       <use xlink:href="#ArialMT-2e" x="55.615234"/>
       <use xlink:href="#ArialMT-30" x="83.398438"/>
      </g>
     </g>
    </g>
    <g id="ytick_5">
     <g id="line2d_12">
      <path d="M 53.389063 112.693605 
L 441.919063 112.693605 
" clip-path="url(#pab8ca390fc)" style="fill: none; stroke: #ffffff; stroke-linecap: round"/>
     </g>
     <g id="text_13">
      <!-- 0.5 -->
      <g style="fill: #262626" transform="translate(28.599063 116.630401)scale(0.11 -0.11)">
       <use xlink:href="#ArialMT-30"/>
       <use xlink:href="#ArialMT-2e" x="55.615234"/>
       <use xlink:href="#ArialMT-35" x="83.398438"/>
      </g>
     </g>
    </g>
    <g id="ytick_6">
     <g id="line2d_13">
      <path d="M 53.389063 69.628318 
L 441.919063 69.628318 
" clip-path="url(#pab8ca390fc)" style="fill: none; stroke: #ffffff; stroke-linecap: round"/>
     </g>
     <g id="text_14">
      <!-- 1.0 -->
      <g style="fill: #262626" transform="translate(28.599063 73.565114)scale(0.11 -0.11)">
       <use xlink:href="#ArialMT-31"/>
       <use xlink:href="#ArialMT-2e" x="55.615234"/>
       <use xlink:href="#ArialMT-30" x="83.398438"/>
      </g>
     </g>
    </g>
    <g id="ytick_7">
     <g id="line2d_14">
      <path d="M 53.389063 26.563031 
L 441.919063 26.563031 
" clip-path="url(#pab8ca390fc)" style="fill: none; stroke: #ffffff; stroke-linecap: round"/>
     </g>
     <g id="text_15">
      <!-- 1.5 -->
      <g style="fill: #262626" transform="translate(28.599063 30.499828)scale(0.11 -0.11)">
       <use xlink:href="#ArialMT-31"/>
       <use xlink:href="#ArialMT-2e" x="55.615234"/>
       <use xlink:href="#ArialMT-35" x="83.398438"/>
      </g>
     </g>
    </g>
    <g id="text_16">
     <!-- y -->
     <g style="fill: #262626" transform="translate(15.64875 160.060312)rotate(-90)scale(0.12 -0.12)">
      <defs>
       <path id="ArialMT-79" d="M 397 -1278 
L 334 -750 
Q 519 -800 656 -800 
Q 844 -800 956 -737 
Q 1069 -675 1141 -563 
Q 1194 -478 1313 -144 
Q 1328 -97 1363 -6 
L 103 3319 
L 709 3319 
L 1400 1397 
Q 1534 1031 1641 628 
Q 1738 1016 1872 1384 
L 2581 3319 
L 3144 3319 
L 1881 -56 
Q 1678 -603 1566 -809 
Q 1416 -1088 1222 -1217 
Q 1028 -1347 759 -1347 
Q 597 -1347 397 -1278 
z
" transform="scale(0.015625)"/>
      </defs>
      <use xlink:href="#ArialMT-79"/>
     </g>
    </g>
   </g>
   <g id="PathCollection_1">
    <defs>
     <path id="m85bf1c240b" d="M 0 3 
C 0.795609 3 1.55874 2.683901 2.12132 2.12132 
C 2.683901 1.55874 3 0.795609 3 0 
C 3 -0.795609 2.683901 -1.55874 2.12132 -2.12132 
C 1.55874 -2.683901 0.795609 -3 0 -3 
C -0.795609 -3 -1.55874 -2.683901 -2.12132 -2.12132 
C -2.683901 -1.55874 -3 -0.795609 -3 0 
C -3 0.795609 -2.683901 1.55874 -2.12132 2.12132 
C -1.55874 2.683901 -0.795609 3 0 3 
z
" style="stroke: #4c72b0"/>
    </defs>
    <g clip-path="url(#pab8ca390fc)">
     <use xlink:href="#m85bf1c240b" x="71.049517" y="163.925532" style="fill: #4c72b0; stroke: #4c72b0"/>
     <use xlink:href="#m85bf1c240b" x="74.617286" y="128.405923" style="fill: #4c72b0; stroke: #4c72b0"/>
     <use xlink:href="#m85bf1c240b" x="78.185054" y="152.576428" style="fill: #4c72b0; stroke: #4c72b0"/>
     <use xlink:href="#m85bf1c240b" x="81.752823" y="107.349702" style="fill: #4c72b0; stroke: #4c72b0"/>
     <use xlink:href="#m85bf1c240b" x="85.320591" y="128.882908" style="fill: #4c72b0; stroke: #4c72b0"/>
     <use xlink:href="#m85bf1c240b" x="88.88836" y="151.151142" style="fill: #4c72b0; stroke: #4c72b0"/>
     <use xlink:href="#m85bf1c240b" x="92.456129" y="130.144254" style="fill: #4c72b0; stroke: #4c72b0"/>
     <use xlink:href="#m85bf1c240b" x="96.023897" y="151.220615" style="fill: #4c72b0; stroke: #4c72b0"/>
     <use xlink:href="#m85bf1c240b" x="99.591666" y="90.689255" style="fill: #4c72b0; stroke: #4c72b0"/>
     <use xlink:href="#m85bf1c240b" x="103.159434" y="78.595638" style="fill: #4c72b0; stroke: #4c72b0"/>
     <use xlink:href="#m85bf1c240b" x="106.727203" y="87.82697" style="fill: #4c72b0; stroke: #4c72b0"/>
     <use xlink:href="#m85bf1c240b" x="110.294972" y="119.398973" style="fill: #4c72b0; stroke: #4c72b0"/>
     <use xlink:href="#m85bf1c240b" x="113.86274" y="111.266063" style="fill: #4c72b0; stroke: #4c72b0"/>
     <use xlink:href="#m85bf1c240b" x="117.430509" y="69.735621" style="fill: #4c72b0; stroke: #4c72b0"/>
     <use xlink:href="#m85bf1c240b" x="120.998277" y="104.700312" style="fill: #4c72b0; stroke: #4c72b0"/>
     <use xlink:href="#m85bf1c240b" x="124.566046" y="89.385761" style="fill: #4c72b0; stroke: #4c72b0"/>
     <use xlink:href="#m85bf1c240b" x="128.133815" y="42.057469" style="fill: #4c72b0; stroke: #4c72b0"/>
     <use xlink:href="#m85bf1c240b" x="131.701583" y="95.78594" style="fill: #4c72b0; stroke: #4c72b0"/>
     <use xlink:href="#m85bf1c240b" x="135.269352" y="58.674831" style="fill: #4c72b0; stroke: #4c72b0"/>
     <use xlink:href="#m85bf1c240b" x="138.83712" y="64.32095" style="fill: #4c72b0; stroke: #4c72b0"/>
     <use xlink:href="#m85bf1c240b" x="142.404889" y="56.117034" style="fill: #4c72b0; stroke: #4c72b0"/>
     <use xlink:href="#m85bf1c240b" x="145.972658" y="34.219687" style="fill: #4c72b0; stroke: #4c72b0"/>
     <use xlink:href="#m85bf1c240b" x="149.540426" y="89.879682" style="fill: #4c72b0; stroke: #4c72b0"/>
     <use xlink:href="#m85bf1c240b" x="153.108195" y="65.265775" style="fill: #4c72b0; stroke: #4c72b0"/>
     <use xlink:href="#m85bf1c240b" x="156.675963" y="98.87301" style="fill: #4c72b0; stroke: #4c72b0"/>
     <use xlink:href="#m85bf1c240b" x="160.243732" y="96.184862" style="fill: #4c72b0; stroke: #4c72b0"/>
     <use xlink:href="#m85bf1c240b" x="163.811501" y="101.604436" style="fill: #4c72b0; stroke: #4c72b0"/>
     <use xlink:href="#m85bf1c240b" x="167.379269" y="53.57478" style="fill: #4c72b0; stroke: #4c72b0"/>
     <use xlink:href="#m85bf1c240b" x="170.947038" y="44.600691" style="fill: #4c72b0; stroke: #4c72b0"/>
     <use xlink:href="#m85bf1c240b" x="174.514806" y="95.939355" style="fill: #4c72b0; stroke: #4c72b0"/>
     <use xlink:href="#m85bf1c240b" x="178.082575" y="75.988537" style="fill: #4c72b0; stroke: #4c72b0"/>
     <use xlink:href="#m85bf1c240b" x="181.650343" y="76.495829" style="fill: #4c72b0; stroke: #4c72b0"/>
     <use xlink:href="#m85bf1c240b" x="185.218112" y="88.529003" style="fill: #4c72b0; stroke: #4c72b0"/>
     <use xlink:href="#m85bf1c240b" x="188.785881" y="128.199468" style="fill: #4c72b0; stroke: #4c72b0"/>
     <use xlink:href="#m85bf1c240b" x="192.353649" y="87.124452" style="fill: #4c72b0; stroke: #4c72b0"/>
     <use xlink:href="#m85bf1c240b" x="195.921418" y="97.799016" style="fill: #4c72b0; stroke: #4c72b0"/>
     <use xlink:href="#m85bf1c240b" x="199.489186" y="93.18624" style="fill: #4c72b0; stroke: #4c72b0"/>
     <use xlink:href="#m85bf1c240b" x="203.056955" y="49.332301" style="fill: #4c72b0; stroke: #4c72b0"/>
     <use xlink:href="#m85bf1c240b" x="206.624724" y="123.943547" style="fill: #4c72b0; stroke: #4c72b0"/>
     <use xlink:href="#m85bf1c240b" x="210.192492" y="90.37528" style="fill: #4c72b0; stroke: #4c72b0"/>
     <use xlink:href="#m85bf1c240b" x="213.760261" y="99.764442" style="fill: #4c72b0; stroke: #4c72b0"/>
     <use xlink:href="#m85bf1c240b" x="217.328029" y="88.710557" style="fill: #4c72b0; stroke: #4c72b0"/>
     <use xlink:href="#m85bf1c240b" x="220.895798" y="86.230584" style="fill: #4c72b0; stroke: #4c72b0"/>
     <use xlink:href="#m85bf1c240b" x="224.463567" y="143.310482" style="fill: #4c72b0; stroke: #4c72b0"/>
     <use xlink:href="#m85bf1c240b" x="228.031335" y="137.233837" style="fill: #4c72b0; stroke: #4c72b0"/>
     <use xlink:href="#m85bf1c240b" x="231.599104" y="151.481737" style="fill: #4c72b0; stroke: #4c72b0"/>
     <use xlink:href="#m85bf1c240b" x="235.166872" y="110.484247" style="fill: #4c72b0; stroke: #4c72b0"/>
     <use xlink:href="#m85bf1c240b" x="238.734641" y="167.449949" style="fill: #4c72b0; stroke: #4c72b0"/>
     <use xlink:href="#m85bf1c240b" x="242.30241" y="146.141077" style="fill: #4c72b0; stroke: #4c72b0"/>
     <use xlink:href="#m85bf1c240b" x="245.870178" y="168.742471" style="fill: #4c72b0; stroke: #4c72b0"/>
     <use xlink:href="#m85bf1c240b" x="249.437947" y="130.804889" style="fill: #4c72b0; stroke: #4c72b0"/>
     <use xlink:href="#m85bf1c240b" x="253.005715" y="193.188303" style="fill: #4c72b0; stroke: #4c72b0"/>
     <use xlink:href="#m85bf1c240b" x="256.573484" y="187.01098" style="fill: #4c72b0; stroke: #4c72b0"/>
     <use xlink:href="#m85bf1c240b" x="260.141253" y="141.855237" style="fill: #4c72b0; stroke: #4c72b0"/>
     <use xlink:href="#m85bf1c240b" x="263.709021" y="217.234353" style="fill: #4c72b0; stroke: #4c72b0"/>
     <use xlink:href="#m85bf1c240b" x="267.27679" y="199.847972" style="fill: #4c72b0; stroke: #4c72b0"/>
     <use xlink:href="#m85bf1c240b" x="270.844558" y="200.116454" style="fill: #4c72b0; stroke: #4c72b0"/>
     <use xlink:href="#m85bf1c240b" x="274.412327" y="189.326188" style="fill: #4c72b0; stroke: #4c72b0"/>
     <use xlink:href="#m85bf1c240b" x="277.980096" y="245.98194" style="fill: #4c72b0; stroke: #4c72b0"/>
     <use xlink:href="#m85bf1c240b" x="281.547864" y="231.13789" style="fill: #4c72b0; stroke: #4c72b0"/>
     <use xlink:href="#m85bf1c240b" x="285.115633" y="233.745049" style="fill: #4c72b0; stroke: #4c72b0"/>
     <use xlink:href="#m85bf1c240b" x="288.683401" y="224.530273" style="fill: #4c72b0; stroke: #4c72b0"/>
     <use xlink:href="#m85bf1c240b" x="292.25117" y="243.244962" style="fill: #4c72b0; stroke: #4c72b0"/>
     <use xlink:href="#m85bf1c240b" x="295.818939" y="248.162145" style="fill: #4c72b0; stroke: #4c72b0"/>
     <use xlink:href="#m85bf1c240b" x="299.386707" y="191.852471" style="fill: #4c72b0; stroke: #4c72b0"/>
     <use xlink:href="#m85bf1c240b" x="302.954476" y="179.628482" style="fill: #4c72b0; stroke: #4c72b0"/>
     <use xlink:href="#m85bf1c240b" x="306.522244" y="252.695648" style="fill: #4c72b0; stroke: #4c72b0"/>
     <use xlink:href="#m85bf1c240b" x="310.090013" y="222.601095" style="fill: #4c72b0; stroke: #4c72b0"/>
     <use xlink:href="#m85bf1c240b" x="313.657782" y="228.474693" style="fill: #4c72b0; stroke: #4c72b0"/>
     <use xlink:href="#m85bf1c240b" x="317.22555" y="219.484788" style="fill: #4c72b0; stroke: #4c72b0"/>
     <use xlink:href="#m85bf1c240b" x="320.793319" y="225.342496" style="fill: #4c72b0; stroke: #4c72b0"/>
     <use xlink:href="#m85bf1c240b" x="324.361087" y="235.009297" style="fill: #4c72b0; stroke: #4c72b0"/>
     <use xlink:href="#m85bf1c240b" x="327.928856" y="187.681935" style="fill: #4c72b0; stroke: #4c72b0"/>
     <use xlink:href="#m85bf1c240b" x="331.496624" y="266.191432" style="fill: #4c72b0; stroke: #4c72b0"/>
     <use xlink:href="#m85bf1c240b" x="335.064393" y="221.300392" style="fill: #4c72b0; stroke: #4c72b0"/>
     <use xlink:href="#m85bf1c240b" x="338.632162" y="239.696662" style="fill: #4c72b0; stroke: #4c72b0"/>
     <use xlink:href="#m85bf1c240b" x="342.19993" y="279.900937" style="fill: #4c72b0; stroke: #4c72b0"/>
     <use xlink:href="#m85bf1c240b" x="345.767699" y="260.494415" style="fill: #4c72b0; stroke: #4c72b0"/>
     <use xlink:href="#m85bf1c240b" x="349.335467" y="211.130205" style="fill: #4c72b0; stroke: #4c72b0"/>
     <use xlink:href="#m85bf1c240b" x="352.903236" y="268.689556" style="fill: #4c72b0; stroke: #4c72b0"/>
     <use xlink:href="#m85bf1c240b" x="356.471005" y="189.560805" style="fill: #4c72b0; stroke: #4c72b0"/>
     <use xlink:href="#m85bf1c240b" x="360.038773" y="257.761286" style="fill: #4c72b0; stroke: #4c72b0"/>
     <use xlink:href="#m85bf1c240b" x="363.606542" y="228.635709" style="fill: #4c72b0; stroke: #4c72b0"/>
     <use xlink:href="#m85bf1c240b" x="367.17431" y="187.724525" style="fill: #4c72b0; stroke: #4c72b0"/>
     <use xlink:href="#m85bf1c240b" x="370.742079" y="191.449164" style="fill: #4c72b0; stroke: #4c72b0"/>
     <use xlink:href="#m85bf1c240b" x="374.309848" y="221.981982" style="fill: #4c72b0; stroke: #4c72b0"/>
     <use xlink:href="#m85bf1c240b" x="377.877616" y="199.390477" style="fill: #4c72b0; stroke: #4c72b0"/>
     <use xlink:href="#m85bf1c240b" x="381.445385" y="167.814404" style="fill: #4c72b0; stroke: #4c72b0"/>
     <use xlink:href="#m85bf1c240b" x="385.013153" y="219.478627" style="fill: #4c72b0; stroke: #4c72b0"/>
     <use xlink:href="#m85bf1c240b" x="388.580922" y="161.766619" style="fill: #4c72b0; stroke: #4c72b0"/>
     <use xlink:href="#m85bf1c240b" x="392.148691" y="242.455245" style="fill: #4c72b0; stroke: #4c72b0"/>
     <use xlink:href="#m85bf1c240b" x="395.716459" y="168.571312" style="fill: #4c72b0; stroke: #4c72b0"/>
     <use xlink:href="#m85bf1c240b" x="399.284228" y="168.378905" style="fill: #4c72b0; stroke: #4c72b0"/>
     <use xlink:href="#m85bf1c240b" x="402.851996" y="214.215206" style="fill: #4c72b0; stroke: #4c72b0"/>
     <use xlink:href="#m85bf1c240b" x="406.419765" y="160.019603" style="fill: #4c72b0; stroke: #4c72b0"/>
     <use xlink:href="#m85bf1c240b" x="409.987534" y="175.947045" style="fill: #4c72b0; stroke: #4c72b0"/>
     <use xlink:href="#m85bf1c240b" x="413.555302" y="157.210476" style="fill: #4c72b0; stroke: #4c72b0"/>
     <use xlink:href="#m85bf1c240b" x="417.123071" y="150.863756" style="fill: #4c72b0; stroke: #4c72b0"/>
     <use xlink:href="#m85bf1c240b" x="420.690839" y="137.211049" style="fill: #4c72b0; stroke: #4c72b0"/>
     <use xlink:href="#m85bf1c240b" x="424.258608" y="205.324759" style="fill: #4c72b0; stroke: #4c72b0"/>
    </g>
   </g>
   <g id="line2d_15">
    <path d="M 71.049517 155.758891 
L 74.617286 150.296153 
L 78.185054 144.855411 
L 81.752823 139.458573 
L 85.320591 134.127371 
L 88.88836 128.883272 
L 92.456129 123.747391 
L 96.023897 118.740409 
L 99.591666 113.882488 
L 103.159434 109.193188 
L 106.727203 104.691391 
L 110.294972 100.395226 
L 113.86274 96.32199 
L 117.430509 92.488086 
L 120.998277 88.908951 
L 124.566046 85.598997 
L 128.133815 82.571553 
L 131.701583 79.838807 
L 135.269352 77.411766 
L 138.83712 75.3002 
L 142.404889 73.512613 
L 145.972658 72.056203 
L 149.540426 70.936835 
L 153.108195 70.159014 
L 156.675963 69.725874 
L 160.243732 69.639159 
L 163.811501 69.899218 
L 167.379269 70.505003 
L 170.947038 71.454075 
L 174.514806 72.742613 
L 178.082575 74.365429 
L 181.650343 76.315987 
L 185.218112 78.586434 
L 188.785881 81.167626 
L 192.353649 84.049172 
L 195.921418 87.219467 
L 199.489186 90.665747 
L 203.056955 94.374133 
L 206.624724 98.329695 
L 210.192492 102.516503 
L 213.760261 106.9177 
L 217.328029 111.515563 
L 220.895798 116.291578 
L 224.463567 121.226514 
L 228.031335 126.3005 
L 231.599104 131.493105 
L 235.166872 136.783419 
L 238.734641 142.150141 
L 242.30241 147.57166 
L 245.870178 153.026146 
L 249.437947 158.491637 
L 253.005715 163.946123 
L 256.573484 169.367642 
L 260.141253 174.734364 
L 263.709021 180.024678 
L 267.27679 185.217283 
L 270.844558 190.291268 
L 274.412327 195.226205 
L 277.980096 200.00222 
L 281.547864 204.600083 
L 285.115633 209.00128 
L 288.683401 213.188088 
L 292.25117 217.143649 
L 295.818939 220.852036 
L 299.386707 224.298315 
L 302.954476 227.468611 
L 306.522244 230.350156 
L 310.090013 232.931349 
L 313.657782 235.201796 
L 317.22555 237.152354 
L 320.793319 238.77517 
L 324.361087 240.063708 
L 327.928856 241.01278 
L 331.496624 241.618565 
L 335.064393 241.878624 
L 338.632162 241.791908 
L 342.19993 241.358769 
L 345.767699 240.580948 
L 349.335467 239.461579 
L 352.903236 238.005169 
L 356.471005 236.217583 
L 360.038773 234.106017 
L 363.606542 231.678975 
L 367.17431 228.94623 
L 370.742079 225.918786 
L 374.309848 222.608832 
L 377.877616 219.029697 
L 381.445385 215.195793 
L 385.013153 211.122557 
L 388.580922 206.826392 
L 392.148691 202.324595 
L 395.716459 197.635295 
L 399.284228 192.777374 
L 402.851996 187.770392 
L 406.419765 182.634511 
L 409.987534 177.390412 
L 413.555302 172.05921 
L 417.123071 166.662372 
L 420.690839 161.22163 
L 424.258608 155.758891 
" clip-path="url(#pab8ca390fc)" style="fill: none; stroke: #ff0000; stroke-width: 2; stroke-linecap: round"/>
   </g>
   <g id="patch_3">
    <path d="M 53.389063 292.185 
L 53.389063 21.935625 
" style="fill: none; stroke: #ffffff; stroke-width: 1.25; stroke-linejoin: miter; stroke-linecap: square"/>
   </g>
   <g id="patch_4">
    <path d="M 441.919063 292.185 
L 441.919063 21.935625 
" style="fill: none; stroke: #ffffff; stroke-width: 1.25; stroke-linejoin: miter; stroke-linecap: square"/>
   </g>
   <g id="patch_5">
    <path d="M 53.389063 292.185 
L 441.919062 292.185 
" style="fill: none; stroke: #ffffff; stroke-width: 1.25; stroke-linejoin: miter; stroke-linecap: square"/>
   </g>
   <g id="patch_6">
    <path d="M 53.389063 21.935625 
L 441.919062 21.935625 
" style="fill: none; stroke: #ffffff; stroke-width: 1.25; stroke-linejoin: miter; stroke-linecap: square"/>
   </g>
   <g id="text_17">
    <!-- Scatter and line plot, but with Seaborn -->
    <g style="fill: #262626" transform="translate(146.264375 15.935625)scale(0.12 -0.12)">
     <defs>
      <path id="ArialMT-53" d="M 288 1472 
L 859 1522 
Q 900 1178 1048 958 
Q 1197 738 1509 602 
Q 1822 466 2213 466 
Q 2559 466 2825 569 
Q 3091 672 3220 851 
Q 3350 1031 3350 1244 
Q 3350 1459 3225 1620 
Q 3100 1781 2813 1891 
Q 2628 1963 1997 2114 
Q 1366 2266 1113 2400 
Q 784 2572 623 2826 
Q 463 3081 463 3397 
Q 463 3744 659 4045 
Q 856 4347 1234 4503 
Q 1613 4659 2075 4659 
Q 2584 4659 2973 4495 
Q 3363 4331 3572 4012 
Q 3781 3694 3797 3291 
L 3216 3247 
Q 3169 3681 2898 3903 
Q 2628 4125 2100 4125 
Q 1550 4125 1298 3923 
Q 1047 3722 1047 3438 
Q 1047 3191 1225 3031 
Q 1400 2872 2139 2705 
Q 2878 2538 3153 2413 
Q 3553 2228 3743 1945 
Q 3934 1663 3934 1294 
Q 3934 928 3725 604 
Q 3516 281 3123 101 
Q 2731 -78 2241 -78 
Q 1619 -78 1198 103 
Q 778 284 539 648 
Q 300 1013 288 1472 
z
" transform="scale(0.015625)"/>
      <path id="ArialMT-63" d="M 2588 1216 
L 3141 1144 
Q 3050 572 2676 248 
Q 2303 -75 1759 -75 
Q 1078 -75 664 370 
Q 250 816 250 1647 
Q 250 2184 428 2587 
Q 606 2991 970 3192 
Q 1334 3394 1763 3394 
Q 2303 3394 2647 3120 
Q 2991 2847 3088 2344 
L 2541 2259 
Q 2463 2594 2264 2762 
Q 2066 2931 1784 2931 
Q 1359 2931 1093 2626 
Q 828 2322 828 1663 
Q 828 994 1084 691 
Q 1341 388 1753 388 
Q 2084 388 2306 591 
Q 2528 794 2588 1216 
z
" transform="scale(0.015625)"/>
      <path id="ArialMT-61" d="M 2588 409 
Q 2275 144 1986 34 
Q 1697 -75 1366 -75 
Q 819 -75 525 192 
Q 231 459 231 875 
Q 231 1119 342 1320 
Q 453 1522 633 1644 
Q 813 1766 1038 1828 
Q 1203 1872 1538 1913 
Q 2219 1994 2541 2106 
Q 2544 2222 2544 2253 
Q 2544 2597 2384 2738 
Q 2169 2928 1744 2928 
Q 1347 2928 1158 2789 
Q 969 2650 878 2297 
L 328 2372 
Q 403 2725 575 2942 
Q 747 3159 1072 3276 
Q 1397 3394 1825 3394 
Q 2250 3394 2515 3294 
Q 2781 3194 2906 3042 
Q 3031 2891 3081 2659 
Q 3109 2516 3109 2141 
L 3109 1391 
Q 3109 606 3145 398 
Q 3181 191 3288 0 
L 2700 0 
Q 2613 175 2588 409 
z
M 2541 1666 
Q 2234 1541 1622 1453 
Q 1275 1403 1131 1340 
Q 988 1278 909 1158 
Q 831 1038 831 891 
Q 831 666 1001 516 
Q 1172 366 1500 366 
Q 1825 366 2078 508 
Q 2331 650 2450 897 
Q 2541 1088 2541 1459 
L 2541 1666 
z
" transform="scale(0.015625)"/>
      <path id="ArialMT-74" d="M 1650 503 
L 1731 6 
Q 1494 -44 1306 -44 
Q 1000 -44 831 53 
Q 663 150 594 308 
Q 525 466 525 972 
L 525 2881 
L 113 2881 
L 113 3319 
L 525 3319 
L 525 4141 
L 1084 4478 
L 1084 3319 
L 1650 3319 
L 1650 2881 
L 1084 2881 
L 1084 941 
Q 1084 700 1114 631 
Q 1144 563 1211 522 
Q 1278 481 1403 481 
Q 1497 481 1650 503 
z
" transform="scale(0.015625)"/>
      <path id="ArialMT-65" d="M 2694 1069 
L 3275 997 
Q 3138 488 2766 206 
Q 2394 -75 1816 -75 
Q 1088 -75 661 373 
Q 234 822 234 1631 
Q 234 2469 665 2931 
Q 1097 3394 1784 3394 
Q 2450 3394 2872 2941 
Q 3294 2488 3294 1666 
Q 3294 1616 3291 1516 
L 816 1516 
Q 847 969 1125 678 
Q 1403 388 1819 388 
Q 2128 388 2347 550 
Q 2566 713 2694 1069 
z
M 847 1978 
L 2700 1978 
Q 2663 2397 2488 2606 
Q 2219 2931 1791 2931 
Q 1403 2931 1139 2672 
Q 875 2413 847 1978 
z
" transform="scale(0.015625)"/>
      <path id="ArialMT-72" d="M 416 0 
L 416 3319 
L 922 3319 
L 922 2816 
Q 1116 3169 1280 3281 
Q 1444 3394 1641 3394 
Q 1925 3394 2219 3213 
L 2025 2691 
Q 1819 2813 1613 2813 
Q 1428 2813 1281 2702 
Q 1134 2591 1072 2394 
Q 978 2094 978 1738 
L 978 0 
L 416 0 
z
" transform="scale(0.015625)"/>
      <path id="ArialMT-20" transform="scale(0.015625)"/>
      <path id="ArialMT-6e" d="M 422 0 
L 422 3319 
L 928 3319 
L 928 2847 
Q 1294 3394 1984 3394 
Q 2284 3394 2536 3286 
Q 2788 3178 2913 3003 
Q 3038 2828 3088 2588 
Q 3119 2431 3119 2041 
L 3119 0 
L 2556 0 
L 2556 2019 
Q 2556 2363 2490 2533 
Q 2425 2703 2258 2804 
Q 2091 2906 1866 2906 
Q 1506 2906 1245 2678 
Q 984 2450 984 1813 
L 984 0 
L 422 0 
z
" transform="scale(0.015625)"/>
      <path id="ArialMT-64" d="M 2575 0 
L 2575 419 
Q 2259 -75 1647 -75 
Q 1250 -75 917 144 
Q 584 363 401 755 
Q 219 1147 219 1656 
Q 219 2153 384 2558 
Q 550 2963 881 3178 
Q 1213 3394 1622 3394 
Q 1922 3394 2156 3267 
Q 2391 3141 2538 2938 
L 2538 4581 
L 3097 4581 
L 3097 0 
L 2575 0 
z
M 797 1656 
Q 797 1019 1065 703 
Q 1334 388 1700 388 
Q 2069 388 2326 689 
Q 2584 991 2584 1609 
Q 2584 2291 2321 2609 
Q 2059 2928 1675 2928 
Q 1300 2928 1048 2622 
Q 797 2316 797 1656 
z
" transform="scale(0.015625)"/>
      <path id="ArialMT-6c" d="M 409 0 
L 409 4581 
L 972 4581 
L 972 0 
L 409 0 
z
" transform="scale(0.015625)"/>
      <path id="ArialMT-69" d="M 425 3934 
L 425 4581 
L 988 4581 
L 988 3934 
L 425 3934 
z
M 425 0 
L 425 3319 
L 988 3319 
L 988 0 
L 425 0 
z
" transform="scale(0.015625)"/>
      <path id="ArialMT-70" d="M 422 -1272 
L 422 3319 
L 934 3319 
L 934 2888 
Q 1116 3141 1344 3267 
Q 1572 3394 1897 3394 
Q 2322 3394 2647 3175 
Q 2972 2956 3137 2557 
Q 3303 2159 3303 1684 
Q 3303 1175 3120 767 
Q 2938 359 2589 142 
Q 2241 -75 1856 -75 
Q 1575 -75 1351 44 
Q 1128 163 984 344 
L 984 -1272 
L 422 -1272 
z
M 931 1641 
Q 931 1000 1190 694 
Q 1450 388 1819 388 
Q 2194 388 2461 705 
Q 2728 1022 2728 1688 
Q 2728 2322 2467 2637 
Q 2206 2953 1844 2953 
Q 1484 2953 1207 2617 
Q 931 2281 931 1641 
z
" transform="scale(0.015625)"/>
      <path id="ArialMT-6f" d="M 213 1659 
Q 213 2581 725 3025 
Q 1153 3394 1769 3394 
Q 2453 3394 2887 2945 
Q 3322 2497 3322 1706 
Q 3322 1066 3130 698 
Q 2938 331 2570 128 
Q 2203 -75 1769 -75 
Q 1072 -75 642 372 
Q 213 819 213 1659 
z
M 791 1659 
Q 791 1022 1069 705 
Q 1347 388 1769 388 
Q 2188 388 2466 706 
Q 2744 1025 2744 1678 
Q 2744 2294 2464 2611 
Q 2184 2928 1769 2928 
Q 1347 2928 1069 2612 
Q 791 2297 791 1659 
z
" transform="scale(0.015625)"/>
      <path id="ArialMT-2c" d="M 569 0 
L 569 641 
L 1209 641 
L 1209 0 
Q 1209 -353 1084 -570 
Q 959 -788 688 -906 
L 531 -666 
Q 709 -588 793 -436 
Q 878 -284 888 0 
L 569 0 
z
" transform="scale(0.015625)"/>
      <path id="ArialMT-62" d="M 941 0 
L 419 0 
L 419 4581 
L 981 4581 
L 981 2947 
Q 1338 3394 1891 3394 
Q 2197 3394 2470 3270 
Q 2744 3147 2920 2923 
Q 3097 2700 3197 2384 
Q 3297 2069 3297 1709 
Q 3297 856 2875 390 
Q 2453 -75 1863 -75 
Q 1275 -75 941 416 
L 941 0 
z
M 934 1684 
Q 934 1088 1097 822 
Q 1363 388 1816 388 
Q 2184 388 2453 708 
Q 2722 1028 2722 1663 
Q 2722 2313 2464 2622 
Q 2206 2931 1841 2931 
Q 1472 2931 1203 2611 
Q 934 2291 934 1684 
z
" transform="scale(0.015625)"/>
      <path id="ArialMT-75" d="M 2597 0 
L 2597 488 
Q 2209 -75 1544 -75 
Q 1250 -75 995 37 
Q 741 150 617 320 
Q 494 491 444 738 
Q 409 903 409 1263 
L 409 3319 
L 972 3319 
L 972 1478 
Q 972 1038 1006 884 
Q 1059 663 1231 536 
Q 1403 409 1656 409 
Q 1909 409 2131 539 
Q 2353 669 2445 892 
Q 2538 1116 2538 1541 
L 2538 3319 
L 3100 3319 
L 3100 0 
L 2597 0 
z
" transform="scale(0.015625)"/>
      <path id="ArialMT-77" d="M 1034 0 
L 19 3319 
L 600 3319 
L 1128 1403 
L 1325 691 
Q 1338 744 1497 1375 
L 2025 3319 
L 2603 3319 
L 3100 1394 
L 3266 759 
L 3456 1400 
L 4025 3319 
L 4572 3319 
L 3534 0 
L 2950 0 
L 2422 1988 
L 2294 2553 
L 1622 0 
L 1034 0 
z
" transform="scale(0.015625)"/>
      <path id="ArialMT-68" d="M 422 0 
L 422 4581 
L 984 4581 
L 984 2938 
Q 1378 3394 1978 3394 
Q 2347 3394 2619 3248 
Q 2891 3103 3008 2847 
Q 3125 2591 3125 2103 
L 3125 0 
L 2563 0 
L 2563 2103 
Q 2563 2525 2380 2717 
Q 2197 2909 1863 2909 
Q 1613 2909 1392 2779 
Q 1172 2650 1078 2428 
Q 984 2206 984 1816 
L 984 0 
L 422 0 
z
" transform="scale(0.015625)"/>
     </defs>
     <use xlink:href="#ArialMT-53"/>
     <use xlink:href="#ArialMT-63" x="66.699219"/>
     <use xlink:href="#ArialMT-61" x="116.699219"/>
     <use xlink:href="#ArialMT-74" x="172.314453"/>
     <use xlink:href="#ArialMT-74" x="200.097656"/>
     <use xlink:href="#ArialMT-65" x="227.880859"/>
     <use xlink:href="#ArialMT-72" x="283.496094"/>
     <use xlink:href="#ArialMT-20" x="316.796875"/>
     <use xlink:href="#ArialMT-61" x="344.580078"/>
     <use xlink:href="#ArialMT-6e" x="400.195312"/>
     <use xlink:href="#ArialMT-64" x="455.810547"/>
     <use xlink:href="#ArialMT-20" x="511.425781"/>
     <use xlink:href="#ArialMT-6c" x="539.208984"/>
     <use xlink:href="#ArialMT-69" x="561.425781"/>
     <use xlink:href="#ArialMT-6e" x="583.642578"/>
     <use xlink:href="#ArialMT-65" x="639.257812"/>
     <use xlink:href="#ArialMT-20" x="694.873047"/>
     <use xlink:href="#ArialMT-70" x="722.65625"/>
     <use xlink:href="#ArialMT-6c" x="778.271484"/>
     <use xlink:href="#ArialMT-6f" x="800.488281"/>
     <use xlink:href="#ArialMT-74" x="856.103516"/>
     <use xlink:href="#ArialMT-2c" x="883.886719"/>
     <use xlink:href="#ArialMT-20" x="911.669922"/>
     <use xlink:href="#ArialMT-62" x="939.453125"/>
     <use xlink:href="#ArialMT-75" x="995.068359"/>
     <use xlink:href="#ArialMT-74" x="1050.683594"/>
     <use xlink:href="#ArialMT-20" x="1078.466797"/>
     <use xlink:href="#ArialMT-77" x="1106.25"/>
     <use xlink:href="#ArialMT-69" x="1178.466797"/>
     <use xlink:href="#ArialMT-74" x="1200.683594"/>
     <use xlink:href="#ArialMT-68" x="1228.466797"/>
     <use xlink:href="#ArialMT-20" x="1284.082031"/>
     <use xlink:href="#ArialMT-53" x="1311.865234"/>
     <use xlink:href="#ArialMT-65" x="1378.564453"/>
     <use xlink:href="#ArialMT-61" x="1434.179688"/>
     <use xlink:href="#ArialMT-62" x="1489.794922"/>
     <use xlink:href="#ArialMT-6f" x="1545.410156"/>
     <use xlink:href="#ArialMT-72" x="1601.025391"/>
     <use xlink:href="#ArialMT-6e" x="1634.326172"/>
    </g>
   </g>
  </g>
 </g>
 <defs>
  <clipPath id="pab8ca390fc">
   <rect x="53.389063" y="21.935625" width="388.53" height="270.249375"/>
  </clipPath>
 </defs>
</svg>
