<?xml version="1.0" encoding="utf-8" standalone="no"?>
<!DOCTYPE svg PUBLIC "-//W3C//DTD SVG 1.1//EN"
  "http://www.w3.org/Graphics/SVG/1.1/DTD/svg11.dtd">
<svg xmlns:xlink="http://www.w3.org/1999/xlink" width="576pt" height="576pt" viewBox="0 0 576 576" xmlns="http://www.w3.org/2000/svg" version="1.1">
 <metadata>
  <rdf:RDF xmlns:dc="http://purl.org/dc/elements/1.1/" xmlns:cc="http://creativecommons.org/ns#" xmlns:rdf="http://www.w3.org/1999/02/22-rdf-syntax-ns#">
   <cc:Work>
    <dc:type rdf:resource="http://purl.org/dc/dcmitype/StillImage"/>
    <dc:date>2022-11-03T12:26:58.074487</dc:date>
    <dc:format>image/svg+xml</dc:format>
    <dc:creator>
     <cc:Agent>
      <dc:title>Matplotlib v3.6.0, https://matplotlib.org/</dc:title>
     </cc:Agent>
    </dc:creator>
   </cc:Work>
  </rdf:RDF>
 </metadata>
 <defs>
  <style type="text/css">*{stroke-linejoin: round; stroke-linecap: butt}</style>
 </defs>
 <g id="figure_1">
  <g id="patch_1">
   <path d="M 0 576 
L 576 576 
L 576 0 
L 0 0 
z
" style="fill: #ffffff"/>
  </g>
  <g id="patch_2">
   <path d="M 0 576 
L 576 576 
L 576 0 
L 0 0 
z
" style="fill: #ffffff"/>
  </g>
  <g id="axes_1">
   <g id="Path3DCollection_1">
    <defs>
     <path id="C0_0_2c64efbc53" d="M 0 10 
C 2.652031 10 5.195799 8.946337 7.071068 7.071068 
C 8.946337 5.195799 10 2.652031 10 -0 
C 10 -2.652031 8.946337 -5.195799 7.071068 -7.071068 
C 5.195799 -8.946337 2.652031 -10 0 -10 
C -2.652031 -10 -5.195799 -8.946337 -7.071068 -7.071068 
C -8.946337 -5.195799 -10 -2.652031 -10 0 
C -10 2.652031 -8.946337 5.195799 -7.071068 7.071068 
C -5.195799 8.946337 -2.652031 10 0 10 
z
"/>
    </defs>
    <g clip-path="url(#pea24861907)">
     <use xlink:href="#C0_0_2c64efbc53" x="231.674545" y="347.265775" style="fill: #7d80b0; fill-opacity: 0.3; stroke: #000000; stroke-opacity: 0.3; stroke-width: 2"/>
    </g>
    <g clip-path="url(#pea24861907)">
     <use xlink:href="#C0_0_2c64efbc53" x="306.130008" y="264.547577" style="fill: #7d80b0; stroke: #000000; stroke-width: 2"/>
    </g>
   </g>
   <g id="Poly3DCollection_1">
    <path d="M 233.560139 285.552119 
L 377.259491 285.552119 
L 305.518616 406.446082 
L 160.195063 406.446082 
z
" clip-path="url(#pea24861907)" style="fill: #00b2ff; fill-opacity: 0.2; stroke: #000000; stroke-width: 2"/>
    <path d="M 233.560139 285.552119 
L 377.259491 285.552119 
L 385.105998 198.739345 
L 227.567699 198.739345 
z
" clip-path="url(#pea24861907)" style="fill: #00b2ff; fill-opacity: 0.2; stroke: #000000; stroke-width: 2"/>
    <path d="M 233.560139 285.552119 
L 160.195063 406.446082 
L 146.975229 330.343516 
L 227.567699 198.739345 
z
" clip-path="url(#pea24861907)" style="fill: #00b2ff; fill-opacity: 0.2; stroke: #000000; stroke-width: 2"/>
    <path d="M 377.259491 285.552119 
L 305.518616 406.446082 
L 306.467757 330.343516 
L 385.105998 198.739345 
z
" clip-path="url(#pea24861907)" style="fill: #00b2ff; fill-opacity: 0.2; stroke: #000000; stroke-width: 2"/>
    <path d="M 305.518616 406.446082 
L 160.195063 406.446082 
L 146.975229 330.343516 
L 306.467757 330.343516 
z
" clip-path="url(#pea24861907)" style="fill: #00b2ff; fill-opacity: 0.2; stroke: #000000; stroke-width: 2"/>
    <path d="M 227.567699 198.739345 
L 385.105998 198.739345 
L 306.467757 330.343516 
L 146.975229 330.343516 
z
" clip-path="url(#pea24861907)" style="fill: #00b2ff; fill-opacity: 0.2; stroke: #000000; stroke-width: 2"/>
   </g>
  </g>
 </g>
 <defs>
  <clipPath id="pea24861907">
   <rect x="0" y="0" width="576" height="576"/>
  </clipPath>
 </defs>
</svg>
