<?xml version="1.0" encoding="utf-8" standalone="no"?>
<!DOCTYPE svg PUBLIC "-//W3C//DTD SVG 1.1//EN"
  "http://www.w3.org/Graphics/SVG/1.1/DTD/svg11.dtd">
<svg xmlns:xlink="http://www.w3.org/1999/xlink" width="432pt" height="432pt" viewBox="0 0 432 432" xmlns="http://www.w3.org/2000/svg" version="1.1">
 <metadata>
  <rdf:RDF xmlns:dc="http://purl.org/dc/elements/1.1/" xmlns:cc="http://creativecommons.org/ns#" xmlns:rdf="http://www.w3.org/1999/02/22-rdf-syntax-ns#">
   <cc:Work>
    <dc:type rdf:resource="http://purl.org/dc/dcmitype/StillImage"/>
    <dc:date>2022-11-03T12:26:58.097420</dc:date>
    <dc:format>image/svg+xml</dc:format>
    <dc:creator>
     <cc:Agent>
      <dc:title>Matplotlib v3.6.0, https://matplotlib.org/</dc:title>
     </cc:Agent>
    </dc:creator>
   </cc:Work>
  </rdf:RDF>
 </metadata>
 <defs>
  <style type="text/css">*{stroke-linejoin: round; stroke-linecap: butt}</style>
 </defs>
 <g id="figure_1">
  <g id="patch_1">
   <path d="M 0 432 
L 432 432 
L 432 0 
L 0 0 
z
" style="fill: #ffffff"/>
  </g>
  <g id="axes_1">
   <g id="patch_2">
    <path d="M 55.08 384.48 
L 387.72 384.48 
L 387.72 51.84 
L 55.08 51.84 
z
" style="fill: #ffffff"/>
   </g>
   <g id="PathCollection_1">
    <path d="M 353.106459 243.691473 
C 353.423542 243.691473 353.727682 243.565494 353.951894 243.341282 
C 354.176106 243.11707 354.302085 242.81293 354.302085 242.495846 
C 354.302085 242.178762 354.176106 241.874623 353.951894 241.650411 
C 353.727682 241.426198 353.423542 241.30022 353.106459 241.30022 
C 352.789375 241.30022 352.485235 241.426198 352.261023 241.650411 
C 352.036811 241.874623 351.910832 242.178762 351.910832 242.495846 
C 351.910832 242.81293 352.036811 243.11707 352.261023 243.341282 
C 352.485235 243.565494 352.789375 243.691473 353.106459 243.691473 
z
" clip-path="url(#pfb57dc6b46)" style="stroke: #000000"/>
    <path d="M 309.204306 164.789553 
C 309.600441 164.789553 309.980406 164.632167 310.260516 164.352056 
C 310.540626 164.071946 310.698012 163.691982 310.698012 163.295846 
C 310.698012 162.899711 310.540626 162.519746 310.260516 162.239636 
C 309.980406 161.959526 309.600441 161.80214 309.204306 161.80214 
C 308.80817 161.80214 308.428206 161.959526 308.148096 162.239636 
C 307.867985 162.519746 307.710599 162.899711 307.710599 163.295846 
C 307.710599 163.691982 307.867985 164.071946 308.148096 164.352056 
C 308.428206 164.632167 308.80817 164.789553 309.204306 164.789553 
z
" clip-path="url(#pfb57dc6b46)" style="stroke: #000000"/>
    <path d="M 309.204306 222.084911 
C 310.245204 222.084911 311.24361 221.671358 311.979637 220.935331 
C 312.715663 220.199305 313.129217 219.200899 313.129217 218.16 
C 313.129217 217.119101 312.715663 216.120695 311.979637 215.384669 
C 311.24361 214.648642 310.245204 214.235089 309.204306 214.235089 
C 308.163407 214.235089 307.165001 214.648642 306.428975 215.384669 
C 305.692948 216.120695 305.279395 217.119101 305.279395 218.16 
C 305.279395 219.200899 305.692948 220.199305 306.428975 220.935331 
C 307.165001 221.671358 308.163407 222.084911 309.204306 222.084911 
z
" clip-path="url(#pfb57dc6b46)" style="stroke: #000000"/>
    <path d="M 309.204306 323.275751 
C 309.623301 323.275751 310.025192 323.109282 310.321467 322.813008 
C 310.617742 322.516733 310.78421 322.114842 310.78421 321.695846 
C 310.78421 321.276851 310.617742 320.87496 310.321467 320.578685 
C 310.025192 320.28241 309.623301 320.115942 309.204306 320.115942 
C 308.78531 320.115942 308.383419 320.28241 308.087144 320.578685 
C 307.79087 320.87496 307.624401 321.276851 307.624401 321.695846 
C 307.624401 322.114842 307.79087 322.516733 308.087144 322.813008 
C 308.383419 323.109282 308.78531 323.275751 309.204306 323.275751 
z
" clip-path="url(#pfb57dc6b46)" style="stroke: #000000"/>
    <path d="M 265.302153 85.311051 
C 265.624429 85.311051 265.933549 85.18301 266.161433 84.955126 
C 266.389316 84.727242 266.517358 84.418122 266.517358 84.095846 
C 266.517358 83.77357 266.389316 83.46445 266.161433 83.236567 
C 265.933549 83.008683 265.624429 82.880641 265.302153 82.880641 
C 264.979877 82.880641 264.670757 83.008683 264.442873 83.236567 
C 264.21499 83.46445 264.086948 83.77357 264.086948 84.095846 
C 264.086948 84.418122 264.21499 84.727242 264.442873 84.955126 
C 264.670757 85.18301 264.979877 85.311051 265.302153 85.311051 
z
" clip-path="url(#pfb57dc6b46)" style="stroke: #000000"/>
    <path d="M 265.302153 243.694897 
C 265.620145 243.694897 265.925155 243.568557 266.15001 243.343703 
C 266.374864 243.118849 266.501203 242.813838 266.501203 242.495846 
C 266.501203 242.177854 266.374864 241.872844 266.15001 241.64799 
C 265.925155 241.423135 265.620145 241.296796 265.302153 241.296796 
C 264.984161 241.296796 264.67915 241.423135 264.454296 241.64799 
C 264.229442 241.872844 264.103102 242.177854 264.103102 242.495846 
C 264.103102 242.813838 264.229442 243.118849 264.454296 243.343703 
C 264.67915 243.568557 264.984161 243.694897 265.302153 243.694897 
z
" clip-path="url(#pfb57dc6b46)" style="stroke: #000000"/>
    <path d="M 221.4 62.114816 
C 222.024505 62.114816 222.623515 61.866698 223.065107 61.425107 
C 223.506698 60.983515 223.754816 60.384505 223.754816 59.76 
C 223.754816 59.135495 223.506698 58.536485 223.065107 58.094893 
C 222.623515 57.653302 222.024505 57.405184 221.4 57.405184 
C 220.775495 57.405184 220.176485 57.653302 219.734893 58.094893 
C 219.293302 58.536485 219.045184 59.135495 219.045184 59.76 
C 219.045184 60.384505 219.293302 60.983515 219.734893 61.425107 
C 220.176485 61.866698 220.775495 62.114816 221.4 62.114816 
z
" clip-path="url(#pfb57dc6b46)" style="stroke: #000000"/>
    <path d="M 221.4 164.847055 
C 221.811385 164.847055 222.205977 164.68361 222.49687 164.392716 
C 222.787764 164.101823 222.951209 163.707232 222.951209 163.295846 
C 222.951209 162.884461 222.787764 162.489869 222.49687 162.198976 
C 222.205977 161.908083 221.811385 161.744638 221.4 161.744638 
C 220.988615 161.744638 220.594023 161.908083 220.30313 162.198976 
C 220.012236 162.489869 219.848791 162.884461 219.848791 163.295846 
C 219.848791 163.707232 220.012236 164.101823 220.30313 164.392716 
C 220.594023 164.68361 220.988615 164.847055 221.4 164.847055 
z
" clip-path="url(#pfb57dc6b46)" style="stroke: #000000"/>
    <path d="M 221.4 225.141078 
C 223.251404 225.141078 225.027228 224.405508 226.336368 223.096368 
C 227.645508 221.787228 228.381078 220.011404 228.381078 218.16 
C 228.381078 216.308596 227.645508 214.532772 226.336368 213.223632 
C 225.027228 211.914492 223.251404 211.178922 221.4 211.178922 
C 219.548596 211.178922 217.772772 211.914492 216.463632 213.223632 
C 215.154492 214.532772 214.418922 216.308596 214.418922 218.16 
C 214.418922 220.011404 215.154492 221.787228 216.463632 223.096368 
C 217.772772 224.405508 219.548596 225.141078 221.4 225.141078 
z
" clip-path="url(#pfb57dc6b46)" style="stroke: #000000"/>
    <path d="M 221.4 323.189553 
C 221.796136 323.189553 222.1761 323.032167 222.45621 322.752056 
C 222.73632 322.471946 222.893707 322.091982 222.893707 321.695846 
C 222.893707 321.299711 222.73632 320.919746 222.45621 320.639636 
C 222.1761 320.359526 221.796136 320.20214 221.4 320.20214 
C 221.003864 320.20214 220.6239 320.359526 220.34379 320.639636 
C 220.06368 320.919746 219.906293 321.299711 219.906293 321.695846 
C 219.906293 322.091982 220.06368 322.471946 220.34379 322.752056 
C 220.6239 323.032167 221.003864 323.189553 221.4 323.189553 
z
" clip-path="url(#pfb57dc6b46)" style="stroke: #000000"/>
    <path d="M 221.4 378.914816 
C 222.024505 378.914816 222.623515 378.666698 223.065107 378.225107 
C 223.506698 377.783515 223.754816 377.184505 223.754816 376.56 
C 223.754816 375.935495 223.506698 375.336485 223.065107 374.894893 
C 222.623515 374.453302 222.024505 374.205184 221.4 374.205184 
C 220.775495 374.205184 220.176485 374.453302 219.734893 374.894893 
C 219.293302 375.336485 219.045184 375.935495 219.045184 376.56 
C 219.045184 377.184505 219.293302 377.783515 219.734893 378.225107 
C 220.176485 378.666698 220.775495 378.914816 221.4 378.914816 
z
" clip-path="url(#pfb57dc6b46)" style="stroke: #000000"/>
    <path d="M 177.497847 85.311051 
C 177.820123 85.311051 178.129243 85.18301 178.357127 84.955126 
C 178.58501 84.727242 178.713052 84.418122 178.713052 84.095846 
C 178.713052 83.77357 178.58501 83.46445 178.357127 83.236567 
C 178.129243 83.008683 177.820123 82.880641 177.497847 82.880641 
C 177.175571 82.880641 176.866451 83.008683 176.638567 83.236567 
C 176.410684 83.46445 176.282642 83.77357 176.282642 84.095846 
C 176.282642 84.418122 176.410684 84.727242 176.638567 84.955126 
C 176.866451 85.18301 177.175571 85.311051 177.497847 85.311051 
z
" clip-path="url(#pfb57dc6b46)" style="stroke: #000000"/>
    <path d="M 177.497847 243.694897 
C 177.815839 243.694897 178.12085 243.568557 178.345704 243.343703 
C 178.570558 243.118849 178.696898 242.813838 178.696898 242.495846 
C 178.696898 242.177854 178.570558 241.872844 178.345704 241.64799 
C 178.12085 241.423135 177.815839 241.296796 177.497847 241.296796 
C 177.179855 241.296796 176.874845 241.423135 176.64999 241.64799 
C 176.425136 241.872844 176.298797 242.177854 176.298797 242.495846 
C 176.298797 242.813838 176.425136 243.118849 176.64999 243.343703 
C 176.874845 243.568557 177.179855 243.694897 177.497847 243.694897 
z
" clip-path="url(#pfb57dc6b46)" style="stroke: #000000"/>
    <path d="M 133.595694 164.789553 
C 133.99183 164.789553 134.371794 164.632167 134.651904 164.352056 
C 134.932015 164.071946 135.089401 163.691982 135.089401 163.295846 
C 135.089401 162.899711 134.932015 162.519746 134.651904 162.239636 
C 134.371794 161.959526 133.99183 161.80214 133.595694 161.80214 
C 133.199559 161.80214 132.819594 161.959526 132.539484 162.239636 
C 132.259374 162.519746 132.101988 162.899711 132.101988 163.295846 
C 132.101988 163.691982 132.259374 164.071946 132.539484 164.352056 
C 132.819594 164.632167 133.199559 164.789553 133.595694 164.789553 
z
" clip-path="url(#pfb57dc6b46)" style="stroke: #000000"/>
    <path d="M 133.595694 222.084911 
C 134.636593 222.084911 135.634999 221.671358 136.371025 220.935331 
C 137.107052 220.199305 137.520605 219.200899 137.520605 218.16 
C 137.520605 217.119101 137.107052 216.120695 136.371025 215.384669 
C 135.634999 214.648642 134.636593 214.235089 133.595694 214.235089 
C 132.554796 214.235089 131.55639 214.648642 130.820363 215.384669 
C 130.084337 216.120695 129.670783 217.119101 129.670783 218.16 
C 129.670783 219.200899 130.084337 220.199305 130.820363 220.935331 
C 131.55639 221.671358 132.554796 222.084911 133.595694 222.084911 
z
" clip-path="url(#pfb57dc6b46)" style="stroke: #000000"/>
    <path d="M 133.595694 323.275751 
C 134.01469 323.275751 134.416581 323.109282 134.712856 322.813008 
C 135.00913 322.516733 135.175599 322.114842 135.175599 321.695846 
C 135.175599 321.276851 135.00913 320.87496 134.712856 320.578685 
C 134.416581 320.28241 134.01469 320.115942 133.595694 320.115942 
C 133.176699 320.115942 132.774808 320.28241 132.478533 320.578685 
C 132.182258 320.87496 132.01579 321.276851 132.01579 321.695846 
C 132.01579 322.114842 132.182258 322.516733 132.478533 322.813008 
C 132.774808 323.109282 133.176699 323.275751 133.595694 323.275751 
z
" clip-path="url(#pfb57dc6b46)" style="stroke: #000000"/>
    <path d="M 89.693541 243.691473 
C 90.010625 243.691473 90.314765 243.565494 90.538977 243.341282 
C 90.763189 243.11707 90.889168 242.81293 90.889168 242.495846 
C 90.889168 242.178762 90.763189 241.874623 90.538977 241.650411 
C 90.314765 241.426198 90.010625 241.30022 89.693541 241.30022 
C 89.376458 241.30022 89.072318 241.426198 88.848106 241.650411 
C 88.623894 241.874623 88.497915 242.178762 88.497915 242.495846 
C 88.497915 242.81293 88.623894 243.11707 88.848106 243.341282 
C 89.072318 243.565494 89.376458 243.691473 89.693541 243.691473 
z
" clip-path="url(#pfb57dc6b46)" style="stroke: #000000"/>
   </g>
   <g id="matplotlib.axis_1">
    <g id="xtick_1">
     <g id="line2d_1">
      <defs>
       <path id="m6353c7eebe" d="M 0 0 
L 0 -3.5 
" style="stroke: #000000; stroke-width: 0.8"/>
      </defs>
      <g>
       <use xlink:href="#m6353c7eebe" x="106.080877" y="51.84" style="stroke: #000000; stroke-width: 0.8"/>
      </g>
     </g>
     <g id="text_1">
      <!-- −1.0 -->
      <g transform="translate(93.939471 42.760312) scale(0.1 -0.1)">
       <defs>
        <path id="DejaVuSans-2212" d="M 678 2272 
L 4684 2272 
L 4684 1741 
L 678 1741 
L 678 2272 
z
" transform="scale(0.015625)"/>
        <path id="DejaVuSans-31" d="M 794 531 
L 1825 531 
L 1825 4091 
L 703 3866 
L 703 4441 
L 1819 4666 
L 2450 4666 
L 2450 531 
L 3481 531 
L 3481 0 
L 794 0 
L 794 531 
z
" transform="scale(0.015625)"/>
        <path id="DejaVuSans-2e" d="M 684 794 
L 1344 794 
L 1344 0 
L 684 0 
L 684 794 
z
" transform="scale(0.015625)"/>
        <path id="DejaVuSans-30" d="M 2034 4250 
Q 1547 4250 1301 3770 
Q 1056 3291 1056 2328 
Q 1056 1369 1301 889 
Q 1547 409 2034 409 
Q 2525 409 2770 889 
Q 3016 1369 3016 2328 
Q 3016 3291 2770 3770 
Q 2525 4250 2034 4250 
z
M 2034 4750 
Q 2819 4750 3233 4129 
Q 3647 3509 3647 2328 
Q 3647 1150 3233 529 
Q 2819 -91 2034 -91 
Q 1250 -91 836 529 
Q 422 1150 422 2328 
Q 422 3509 836 4129 
Q 1250 4750 2034 4750 
z
" transform="scale(0.015625)"/>
       </defs>
       <use xlink:href="#DejaVuSans-2212"/>
       <use xlink:href="#DejaVuSans-31" x="83.789062"/>
       <use xlink:href="#DejaVuSans-2e" x="147.412109"/>
       <use xlink:href="#DejaVuSans-30" x="179.199219"/>
      </g>
     </g>
    </g>
    <g id="xtick_2">
     <g id="line2d_2">
      <g>
       <use xlink:href="#m6353c7eebe" x="163.740439" y="51.84" style="stroke: #000000; stroke-width: 0.8"/>
      </g>
     </g>
     <g id="text_2">
      <!-- −0.5 -->
      <g transform="translate(151.599032 42.760312) scale(0.1 -0.1)">
       <defs>
        <path id="DejaVuSans-35" d="M 691 4666 
L 3169 4666 
L 3169 4134 
L 1269 4134 
L 1269 2991 
Q 1406 3038 1543 3061 
Q 1681 3084 1819 3084 
Q 2600 3084 3056 2656 
Q 3513 2228 3513 1497 
Q 3513 744 3044 326 
Q 2575 -91 1722 -91 
Q 1428 -91 1123 -41 
Q 819 9 494 109 
L 494 744 
Q 775 591 1075 516 
Q 1375 441 1709 441 
Q 2250 441 2565 725 
Q 2881 1009 2881 1497 
Q 2881 1984 2565 2268 
Q 2250 2553 1709 2553 
Q 1456 2553 1204 2497 
Q 953 2441 691 2322 
L 691 4666 
z
" transform="scale(0.015625)"/>
       </defs>
       <use xlink:href="#DejaVuSans-2212"/>
       <use xlink:href="#DejaVuSans-30" x="83.789062"/>
       <use xlink:href="#DejaVuSans-2e" x="147.412109"/>
       <use xlink:href="#DejaVuSans-35" x="179.199219"/>
      </g>
     </g>
    </g>
    <g id="xtick_3">
     <g id="line2d_3">
      <g>
       <use xlink:href="#m6353c7eebe" x="221.4" y="51.84" style="stroke: #000000; stroke-width: 0.8"/>
      </g>
     </g>
     <g id="text_3">
      <!-- 0.0 -->
      <g transform="translate(213.448437 42.760312) scale(0.1 -0.1)">
       <use xlink:href="#DejaVuSans-30"/>
       <use xlink:href="#DejaVuSans-2e" x="63.623047"/>
       <use xlink:href="#DejaVuSans-30" x="95.410156"/>
      </g>
     </g>
    </g>
    <g id="xtick_4">
     <g id="line2d_4">
      <g>
       <use xlink:href="#m6353c7eebe" x="279.059561" y="51.84" style="stroke: #000000; stroke-width: 0.8"/>
      </g>
     </g>
     <g id="text_4">
      <!-- 0.5 -->
      <g transform="translate(271.107999 42.760312) scale(0.1 -0.1)">
       <use xlink:href="#DejaVuSans-30"/>
       <use xlink:href="#DejaVuSans-2e" x="63.623047"/>
       <use xlink:href="#DejaVuSans-35" x="95.410156"/>
      </g>
     </g>
    </g>
    <g id="xtick_5">
     <g id="line2d_5">
      <g>
       <use xlink:href="#m6353c7eebe" x="336.719123" y="51.84" style="stroke: #000000; stroke-width: 0.8"/>
      </g>
     </g>
     <g id="text_5">
      <!-- 1.0 -->
      <g transform="translate(328.76756 42.760312) scale(0.1 -0.1)">
       <use xlink:href="#DejaVuSans-31"/>
       <use xlink:href="#DejaVuSans-2e" x="63.623047"/>
       <use xlink:href="#DejaVuSans-30" x="95.410156"/>
      </g>
     </g>
    </g>
    <g id="text_6">
     <!-- $q_y$ [Å$^{-1}$] -->
     <g transform="translate(201.75 397.78) scale(0.1 -0.1)">
      <defs>
       <path id="DejaVuSans-Oblique-71" d="M 2669 525 
Q 2438 222 2123 65 
Q 1809 -91 1428 -91 
Q 897 -91 595 267 
Q 294 625 294 1253 
Q 294 1759 480 2231 
Q 666 2703 1013 3078 
Q 1238 3322 1530 3453 
Q 1822 3584 2144 3584 
Q 2531 3584 2781 3431 
Q 3031 3278 3144 2969 
L 3244 3494 
L 3822 3494 
L 2888 -1319 
L 2309 -1319 
L 2669 525 
z
M 891 1338 
Q 891 875 1084 633 
Q 1278 391 1644 391 
Q 2188 391 2572 911 
Q 2956 1431 2956 2175 
Q 2956 2625 2757 2864 
Q 2559 3103 2188 3103 
Q 1916 3103 1684 2976 
Q 1453 2850 1281 2606 
Q 1100 2350 995 2006 
Q 891 1663 891 1338 
z
" transform="scale(0.015625)"/>
       <path id="DejaVuSans-Oblique-79" d="M 1588 -325 
Q 1188 -997 936 -1164 
Q 684 -1331 294 -1331 
L -159 -1331 
L -63 -850 
L 269 -850 
Q 509 -850 678 -719 
Q 847 -588 1056 -206 
L 1234 128 
L 459 3500 
L 1069 3500 
L 1650 819 
L 3256 3500 
L 3859 3500 
L 1588 -325 
z
" transform="scale(0.015625)"/>
       <path id="DejaVuSans-20" transform="scale(0.015625)"/>
       <path id="DejaVuSans-5b" d="M 550 4863 
L 1875 4863 
L 1875 4416 
L 1125 4416 
L 1125 -397 
L 1875 -397 
L 1875 -844 
L 550 -844 
L 550 4863 
z
" transform="scale(0.015625)"/>
       <path id="DejaVuSans-c5" d="M 2663 5081 
Q 2663 5278 2523 5417 
Q 2384 5556 2188 5556 
Q 1988 5556 1852 5420 
Q 1716 5284 1716 5081 
Q 1716 4884 1853 4746 
Q 1991 4609 2188 4609 
Q 2384 4609 2523 4746 
Q 2663 4884 2663 5081 
z
M 2188 4044 
L 1338 1722 
L 3041 1722 
L 2188 4044 
z
M 1716 4366 
Q 1525 4494 1428 4673 
Q 1331 4853 1331 5081 
Q 1331 5441 1579 5691 
Q 1828 5941 2188 5941 
Q 2544 5941 2795 5689 
Q 3047 5438 3047 5081 
Q 3047 4863 2948 4678 
Q 2850 4494 2663 4366 
L 4325 0 
L 3669 0 
L 3244 1197 
L 1141 1197 
L 716 0 
L 50 0 
L 1716 4366 
z
" transform="scale(0.015625)"/>
       <path id="DejaVuSans-5d" d="M 1947 4863 
L 1947 -844 
L 622 -844 
L 622 -397 
L 1369 -397 
L 1369 4416 
L 622 4416 
L 622 4863 
L 1947 4863 
z
" transform="scale(0.015625)"/>
      </defs>
      <use xlink:href="#DejaVuSans-Oblique-71" transform="translate(0 0.171875)"/>
      <use xlink:href="#DejaVuSans-Oblique-79" transform="translate(63.476562 -16.234375) scale(0.7)"/>
      <use xlink:href="#DejaVuSans-20" transform="translate(107.636719 0.171875)"/>
      <use xlink:href="#DejaVuSans-5b" transform="translate(139.423828 0.171875)"/>
      <use xlink:href="#DejaVuSans-c5" transform="translate(178.4375 0.171875)"/>
      <use xlink:href="#DejaVuSans-2212" transform="translate(247.802734 38.453125) scale(0.7)"/>
      <use xlink:href="#DejaVuSans-31" transform="translate(306.455078 38.453125) scale(0.7)"/>
      <use xlink:href="#DejaVuSans-5d" transform="translate(353.725586 0.171875)"/>
     </g>
    </g>
   </g>
   <g id="matplotlib.axis_2">
    <g id="ytick_1">
     <g id="line2d_6">
      <defs>
       <path id="mbe85b9c5b4" d="M 0 0 
L -3.5 0 
" style="stroke: #000000; stroke-width: 0.8"/>
      </defs>
      <g>
       <use xlink:href="#mbe85b9c5b4" x="55.08" y="102.840877" style="stroke: #000000; stroke-width: 0.8"/>
      </g>
     </g>
     <g id="text_7">
      <!-- −1.0 -->
      <g transform="translate(23.797187 106.640096) scale(0.1 -0.1)">
       <use xlink:href="#DejaVuSans-2212"/>
       <use xlink:href="#DejaVuSans-31" x="83.789062"/>
       <use xlink:href="#DejaVuSans-2e" x="147.412109"/>
       <use xlink:href="#DejaVuSans-30" x="179.199219"/>
      </g>
     </g>
    </g>
    <g id="ytick_2">
     <g id="line2d_7">
      <g>
       <use xlink:href="#mbe85b9c5b4" x="55.08" y="160.500439" style="stroke: #000000; stroke-width: 0.8"/>
      </g>
     </g>
     <g id="text_8">
      <!-- −0.5 -->
      <g transform="translate(23.797187 164.299657) scale(0.1 -0.1)">
       <use xlink:href="#DejaVuSans-2212"/>
       <use xlink:href="#DejaVuSans-30" x="83.789062"/>
       <use xlink:href="#DejaVuSans-2e" x="147.412109"/>
       <use xlink:href="#DejaVuSans-35" x="179.199219"/>
      </g>
     </g>
    </g>
    <g id="ytick_3">
     <g id="line2d_8">
      <g>
       <use xlink:href="#mbe85b9c5b4" x="55.08" y="218.16" style="stroke: #000000; stroke-width: 0.8"/>
      </g>
     </g>
     <g id="text_9">
      <!-- 0.0 -->
      <g transform="translate(32.176875 221.959219) scale(0.1 -0.1)">
       <use xlink:href="#DejaVuSans-30"/>
       <use xlink:href="#DejaVuSans-2e" x="63.623047"/>
       <use xlink:href="#DejaVuSans-30" x="95.410156"/>
      </g>
     </g>
    </g>
    <g id="ytick_4">
     <g id="line2d_9">
      <g>
       <use xlink:href="#mbe85b9c5b4" x="55.08" y="275.819561" style="stroke: #000000; stroke-width: 0.8"/>
      </g>
     </g>
     <g id="text_10">
      <!-- 0.5 -->
      <g transform="translate(32.176875 279.61878) scale(0.1 -0.1)">
       <use xlink:href="#DejaVuSans-30"/>
       <use xlink:href="#DejaVuSans-2e" x="63.623047"/>
       <use xlink:href="#DejaVuSans-35" x="95.410156"/>
      </g>
     </g>
    </g>
    <g id="ytick_5">
     <g id="line2d_10">
      <g>
       <use xlink:href="#mbe85b9c5b4" x="55.08" y="333.479123" style="stroke: #000000; stroke-width: 0.8"/>
      </g>
     </g>
     <g id="text_11">
      <!-- 1.0 -->
      <g transform="translate(32.176875 337.278341) scale(0.1 -0.1)">
       <use xlink:href="#DejaVuSans-31"/>
       <use xlink:href="#DejaVuSans-2e" x="63.623047"/>
       <use xlink:href="#DejaVuSans-30" x="95.410156"/>
      </g>
     </g>
    </g>
    <g id="text_12">
     <!-- $q_x$ [Å$^{-1}$] -->
     <g transform="translate(17.697187 237.81) rotate(-90) scale(0.1 -0.1)">
      <defs>
       <path id="DejaVuSans-Oblique-78" d="M 3841 3500 
L 2234 1784 
L 3219 0 
L 2559 0 
L 1819 1388 
L 531 0 
L -166 0 
L 1556 1844 
L 641 3500 
L 1300 3500 
L 1972 2234 
L 3144 3500 
L 3841 3500 
z
" transform="scale(0.015625)"/>
      </defs>
      <use xlink:href="#DejaVuSans-Oblique-71" transform="translate(0 0.171875)"/>
      <use xlink:href="#DejaVuSans-Oblique-78" transform="translate(63.476562 -16.234375) scale(0.7)"/>
      <use xlink:href="#DejaVuSans-20" transform="translate(107.636719 0.171875)"/>
      <use xlink:href="#DejaVuSans-5b" transform="translate(139.423828 0.171875)"/>
      <use xlink:href="#DejaVuSans-c5" transform="translate(178.4375 0.171875)"/>
      <use xlink:href="#DejaVuSans-2212" transform="translate(247.802734 38.453125) scale(0.7)"/>
      <use xlink:href="#DejaVuSans-31" transform="translate(306.455078 38.453125) scale(0.7)"/>
      <use xlink:href="#DejaVuSans-5d" transform="translate(353.725586 0.171875)"/>
     </g>
    </g>
   </g>
   <g id="patch_3">
    <path d="M 55.08 384.48 
L 55.08 51.84 
" style="fill: none; stroke: #000000; stroke-width: 0.8; stroke-linejoin: miter; stroke-linecap: square"/>
   </g>
   <g id="patch_4">
    <path d="M 387.72 384.48 
L 387.72 51.84 
" style="fill: none; stroke: #000000; stroke-width: 0.8; stroke-linejoin: miter; stroke-linecap: square"/>
   </g>
   <g id="patch_5">
    <path d="M 55.08 384.48 
L 387.72 384.48 
" style="fill: none; stroke: #000000; stroke-width: 0.8; stroke-linejoin: miter; stroke-linecap: square"/>
   </g>
   <g id="patch_6">
    <path d="M 55.08 51.84 
L 387.72 51.84 
" style="fill: none; stroke: #000000; stroke-width: 0.8; stroke-linejoin: miter; stroke-linecap: square"/>
   </g>
   <g id="text_13">
    <!-- $\overline{3}20$ -->
    <g style="fill: #ff0000" transform="translate(343.556459 234.861843) scale(0.1 -0.1)">
     <defs>
      <path id="DejaVuSans-33" d="M 2597 2516 
Q 3050 2419 3304 2112 
Q 3559 1806 3559 1356 
Q 3559 666 3084 287 
Q 2609 -91 1734 -91 
Q 1441 -91 1130 -33 
Q 819 25 488 141 
L 488 750 
Q 750 597 1062 519 
Q 1375 441 1716 441 
Q 2309 441 2620 675 
Q 2931 909 2931 1356 
Q 2931 1769 2642 2001 
Q 2353 2234 1838 2234 
L 1294 2234 
L 1294 2753 
L 1863 2753 
Q 2328 2753 2575 2939 
Q 2822 3125 2822 3475 
Q 2822 3834 2567 4026 
Q 2313 4219 1838 4219 
Q 1578 4219 1281 4162 
Q 984 4106 628 3988 
L 628 4550 
Q 988 4650 1302 4700 
Q 1616 4750 1894 4750 
Q 2613 4750 3031 4423 
Q 3450 4097 3450 3541 
Q 3450 3153 3228 2886 
Q 3006 2619 2597 2516 
z
" transform="scale(0.015625)"/>
      <path id="DejaVuSans-32" d="M 1228 531 
L 3431 531 
L 3431 0 
L 469 0 
L 469 531 
Q 828 903 1448 1529 
Q 2069 2156 2228 2338 
Q 2531 2678 2651 2914 
Q 2772 3150 2772 3378 
Q 2772 3750 2511 3984 
Q 2250 4219 1831 4219 
Q 1534 4219 1204 4116 
Q 875 4013 500 3803 
L 500 4441 
Q 881 4594 1212 4672 
Q 1544 4750 1819 4750 
Q 2544 4750 2975 4387 
Q 3406 4025 3406 3419 
Q 3406 3131 3298 2873 
Q 3191 2616 2906 2266 
Q 2828 2175 2409 1742 
Q 1991 1309 1228 531 
z
" transform="scale(0.015625)"/>
     </defs>
     <use xlink:href="#DejaVuSans-33" transform="translate(0 0.53125)"/>
     <use xlink:href="#DejaVuSans-32" transform="translate(63.623047 0.03125)"/>
     <use xlink:href="#DejaVuSans-30" transform="translate(127.246094 0.03125)"/>
     <path d="M 0 86.5 
L 0 92.75 
L 63.623047 92.75 
L 63.623047 86.5 
L 0 86.5 
z
"/>
    </g>
   </g>
   <g id="text_14">
    <!-- $\overline{2}01$ -->
    <g style="fill: #ff0000" transform="translate(299.654306 155.3181) scale(0.1 -0.1)">
     <use xlink:href="#DejaVuSans-32" transform="translate(0 0.53125)"/>
     <use xlink:href="#DejaVuSans-30" transform="translate(63.623047 0.03125)"/>
     <use xlink:href="#DejaVuSans-31" transform="translate(127.246094 0.03125)"/>
     <path d="M 0 86.5 
L 0 92.75 
L 63.623047 92.75 
L 63.623047 86.5 
L 0 86.5 
z
"/>
    </g>
   </g>
   <g id="text_15">
    <!-- $\overline{2}10$ -->
    <g style="fill: #ff0000" transform="translate(299.654306 207.37861) scale(0.1 -0.1)">
     <use xlink:href="#DejaVuSans-32" transform="translate(0 0.53125)"/>
     <use xlink:href="#DejaVuSans-31" transform="translate(63.623047 0.03125)"/>
     <use xlink:href="#DejaVuSans-30" transform="translate(127.246094 0.03125)"/>
     <path d="M 0 86.5 
L 0 92.75 
L 63.623047 92.75 
L 63.623047 86.5 
L 0 86.5 
z
"/>
    </g>
   </g>
   <g id="text_16">
    <!-- $\overline{2}3\overline{1}$ -->
    <g style="fill: #ff0000" transform="translate(299.654306 313.618697) scale(0.1 -0.1)">
     <use xlink:href="#DejaVuSans-32" transform="translate(0 0.53125)"/>
     <use xlink:href="#DejaVuSans-33" transform="translate(63.623047 0.03125)"/>
     <use xlink:href="#DejaVuSans-31" transform="translate(127.246094 0.53125)"/>
     <path d="M 0 86.5 
L 0 92.75 
L 63.623047 92.75 
L 63.623047 86.5 
L 0 86.5 
z
"/>
     <path d="M 127.246094 85.1875 
L 127.246094 91.4375 
L 190.869141 91.4375 
L 190.869141 85.1875 
L 127.246094 85.1875 
z
"/>
    </g>
   </g>
   <g id="text_17">
    <!-- $\overline{1}\overline{2}2$ -->
    <g style="fill: #ff0000" transform="translate(255.752153 76.339265) scale(0.1 -0.1)">
     <use xlink:href="#DejaVuSans-31" transform="translate(0 0.53125)"/>
     <use xlink:href="#DejaVuSans-32" transform="translate(63.623047 0.53125)"/>
     <use xlink:href="#DejaVuSans-32" transform="translate(127.246094 0.03125)"/>
     <path d="M 0 85.1875 
L 0 91.4375 
L 63.623047 91.4375 
L 63.623047 85.1875 
L 0 85.1875 
z
"/>
     <path d="M 63.623047 86.5 
L 63.623047 92.75 
L 127.246094 92.75 
L 127.246094 86.5 
L 63.623047 86.5 
z
"/>
    </g>
   </g>
   <g id="text_18">
    <!-- $\overline{1}10$ -->
    <g style="fill: #ff0000" transform="translate(255.752153 234.807894) scale(0.1 -0.1)">
     <use xlink:href="#DejaVuSans-31" transform="translate(0 0.84375)"/>
     <use xlink:href="#DejaVuSans-31" transform="translate(63.623047 0.34375)"/>
     <use xlink:href="#DejaVuSans-30" transform="translate(127.246094 0.34375)"/>
     <path d="M 0 85.5 
L 0 91.75 
L 63.623047 91.75 
L 63.623047 85.5 
L 0 85.5 
z
"/>
    </g>
   </g>
   <g id="text_19">
    <!-- $0\overline{3}2$ -->
    <g style="fill: #ff0000" transform="translate(211.85 50.789229) scale(0.1 -0.1)">
     <use xlink:href="#DejaVuSans-30" transform="translate(0 0.03125)"/>
     <use xlink:href="#DejaVuSans-33" transform="translate(63.623047 0.53125)"/>
     <use xlink:href="#DejaVuSans-32" transform="translate(127.246094 0.03125)"/>
     <path d="M 63.623047 86.5 
L 63.623047 92.75 
L 127.246094 92.75 
L 127.246094 86.5 
L 63.623047 86.5 
z
"/>
    </g>
   </g>
   <g id="text_20">
    <!-- $0\overline{1}1$ -->
    <g style="fill: #ff0000" transform="translate(211.85 155.201789) scale(0.1 -0.1)">
     <use xlink:href="#DejaVuSans-30" transform="translate(0 0.34375)"/>
     <use xlink:href="#DejaVuSans-31" transform="translate(63.623047 0.84375)"/>
     <use xlink:href="#DejaVuSans-31" transform="translate(127.246094 0.34375)"/>
     <path d="M 63.623047 85.5 
L 63.623047 91.75 
L 127.246094 91.75 
L 127.246094 85.5 
L 63.623047 85.5 
z
"/>
    </g>
   </g>
   <g id="text_21">
    <!-- $000$ -->
    <g style="fill: #ff0000" transform="translate(211.85 203.643327) scale(0.1 -0.1)">
     <use xlink:href="#DejaVuSans-30" transform="translate(0 0.78125)"/>
     <use xlink:href="#DejaVuSans-30" transform="translate(63.623047 0.78125)"/>
     <use xlink:href="#DejaVuSans-30" transform="translate(127.246094 0.78125)"/>
    </g>
   </g>
   <g id="text_22">
    <!-- $02\overline{1}$ -->
    <g style="fill: #ff0000" transform="translate(211.85 313.6681) scale(0.1 -0.1)">
     <use xlink:href="#DejaVuSans-30" transform="translate(0 0.34375)"/>
     <use xlink:href="#DejaVuSans-32" transform="translate(63.623047 0.34375)"/>
     <use xlink:href="#DejaVuSans-31" transform="translate(127.246094 0.84375)"/>
     <path d="M 127.246094 85.5 
L 127.246094 91.75 
L 190.869141 91.75 
L 190.869141 85.5 
L 127.246094 85.5 
z
"/>
    </g>
   </g>
   <g id="text_23">
    <!-- $03\overline{2}$ -->
    <g style="fill: #ff0000" transform="translate(211.85 367.589229) scale(0.1 -0.1)">
     <use xlink:href="#DejaVuSans-30" transform="translate(0 0.03125)"/>
     <use xlink:href="#DejaVuSans-33" transform="translate(63.623047 0.03125)"/>
     <use xlink:href="#DejaVuSans-32" transform="translate(127.246094 0.53125)"/>
     <path d="M 127.246094 86.5 
L 127.246094 92.75 
L 190.869141 92.75 
L 190.869141 86.5 
L 127.246094 86.5 
z
"/>
    </g>
   </g>
   <g id="text_24">
    <!-- $1\overline{3}2$ -->
    <g style="fill: #ff0000" transform="translate(167.947847 76.439265) scale(0.1 -0.1)">
     <use xlink:href="#DejaVuSans-31" transform="translate(0 0.03125)"/>
     <use xlink:href="#DejaVuSans-33" transform="translate(63.623047 0.53125)"/>
     <use xlink:href="#DejaVuSans-32" transform="translate(127.246094 0.03125)"/>
     <path d="M 63.623047 86.5 
L 63.623047 92.75 
L 127.246094 92.75 
L 127.246094 86.5 
L 63.623047 86.5 
z
"/>
    </g>
   </g>
   <g id="text_25">
    <!-- $100$ -->
    <g style="fill: #ff0000" transform="translate(167.947847 234.646957) scale(0.1 -0.1)">
     <use xlink:href="#DejaVuSans-31" transform="translate(0 0.78125)"/>
     <use xlink:href="#DejaVuSans-30" transform="translate(63.623047 0.78125)"/>
     <use xlink:href="#DejaVuSans-30" transform="translate(127.246094 0.78125)"/>
    </g>
   </g>
   <g id="text_26">
    <!-- $2\overline{2}1$ -->
    <g style="fill: #ff0000" transform="translate(124.045694 155.2181) scale(0.1 -0.1)">
     <use xlink:href="#DejaVuSans-32" transform="translate(0 0.03125)"/>
     <use xlink:href="#DejaVuSans-32" transform="translate(63.623047 0.53125)"/>
     <use xlink:href="#DejaVuSans-31" transform="translate(127.246094 0.03125)"/>
     <path d="M 63.623047 86.5 
L 63.623047 92.75 
L 127.246094 92.75 
L 127.246094 86.5 
L 63.623047 86.5 
z
"/>
    </g>
   </g>
   <g id="text_27">
    <!-- $2\overline{1}0$ -->
    <g style="fill: #ff0000" transform="translate(124.045694 207.32861) scale(0.1 -0.1)">
     <use xlink:href="#DejaVuSans-32" transform="translate(0 0.34375)"/>
     <use xlink:href="#DejaVuSans-31" transform="translate(63.623047 0.84375)"/>
     <use xlink:href="#DejaVuSans-30" transform="translate(127.246094 0.34375)"/>
     <path d="M 63.623047 85.5 
L 63.623047 91.75 
L 127.246094 91.75 
L 127.246094 85.5 
L 63.623047 85.5 
z
"/>
    </g>
   </g>
   <g id="text_28">
    <!-- $21\overline{1}$ -->
    <g style="fill: #ff0000" transform="translate(124.045694 313.468697) scale(0.1 -0.1)">
     <use xlink:href="#DejaVuSans-32" transform="translate(0 0.34375)"/>
     <use xlink:href="#DejaVuSans-31" transform="translate(63.623047 0.34375)"/>
     <use xlink:href="#DejaVuSans-31" transform="translate(127.246094 0.84375)"/>
     <path d="M 127.246094 85.5 
L 127.246094 91.75 
L 190.869141 91.75 
L 190.869141 85.5 
L 127.246094 85.5 
z
"/>
    </g>
   </g>
   <g id="text_29">
    <!-- $3\overline{1}0$ -->
    <g style="fill: #ff0000" transform="translate(80.143541 234.811843) scale(0.1 -0.1)">
     <use xlink:href="#DejaVuSans-33" transform="translate(0 0.34375)"/>
     <use xlink:href="#DejaVuSans-31" transform="translate(63.623047 0.84375)"/>
     <use xlink:href="#DejaVuSans-30" transform="translate(127.246094 0.34375)"/>
     <path d="M 63.623047 85.5 
L 63.623047 91.75 
L 127.246094 91.75 
L 127.246094 85.5 
L 63.623047 85.5 
z
"/>
    </g>
   </g>
  </g>
 </g>
 <defs>
  <clipPath id="pfb57dc6b46">
   <rect x="55.08" y="51.84" width="332.64" height="332.64"/>
  </clipPath>
 </defs>
</svg>
